<?xml version="1.0" encoding="utf-8"?>
<!-- Generator: Adobe Illustrator 23.0.6, SVG Export Plug-In . SVG Version: 6.00 Build 0)  -->
<svg version="1.1" xmlns="http://www.w3.org/2000/svg" xmlns:xlink="http://www.w3.org/1999/xlink" x="0px" y="0px"
	 viewBox="0 0 216 93.8" style="enable-background:new 0 0 216 93.8;" xml:space="preserve">
<style type="text/css">
	.st0{display:none;}
	.st1{display:inline;}
	.st2{fill:#221F1F;}
	.st3{fill:#037D3F;}
	.st4{fill:#007B3B;}
</style>
<g id="Layer_3" class="st0">
	<g class="st1">
		<path class="st2" d="M-203.7,147.71c0,0,0.01,0,0.02,0.01c0,0-0.01-0.01-0.03-0.03c0,0,0,0.01,0,0.01L-203.7,147.71"/>
		<g>
			<path class="st3" d="M-146.21,174.5c-3.65,0-7-1.35-8.16-3.26c-1.04-1.72-1.04-2.95-1.04-9.82l0.04-5.21
				c0-0.66-1.16-0.73-1.66-0.73l-0.35,0.01l0.5-1.31h0.09c0.52,0,2.89,0.11,3.79,0.11c1,0,3.5-0.14,3.5-0.14l-0.53,1.32
				c-0.7,0.02-1.79,0.14-1.79,1.17l0.01,9c0,2.57,0,6.87,5.41,6.87c4.02,0,5.89-1.98,5.89-6.26l0.02-10.04
				c0-0.72-1.46-0.72-1.46-0.72l0.47-1.31h0.07c0.3,0,1.62,0.11,2.67,0.11c1.16,0,2.72-0.16,2.72-0.16l-0.46,1.34l-0.34-0.01
				c-0.49,0-1.3,0.16-1.3,1.13l-0.14,9.03c0,1.31-0.18,4.54-1.82,6.43C-141.58,173.73-144.23,174.5-146.21,174.5"/>
			<path class="st3" d="M-115.89,174.08c-2.74-3.05-4.43-4.83-5.69-6.17c-0.67-0.72-1.23-1.3-1.77-1.89l-2.02-2.24
				c-1.93-2.15-3.48-3.86-4.19-4.59c0.09,1.42,0.01,6.97,0.01,6.97l0.13,7.86l-1.92-0.08l-2.67,0.14l0.51-1.29
				c0.63-0.01,1.61-0.11,1.61-1l0.02-0.82c0.02-0.76,0.07-1.99,0.07-4.37l0.02-10.12c0-0.87-0.96-0.97-1.37-0.97l0.35-1.32h0.06
				c0.21,0,0.83,0.07,1.38,0.07c0.64,0,1.51-0.09,1.51-0.09c5.71,6.46,5.72,6.48,5.71,6.51c0.05,0,6.11,6.54,7.71,8.18
				c-0.08-2.53,0-11.61,0-11.61l-0.1-3.02c0.01-0.02,0.07-0.03,0.15-0.03c0.38,0,1.34,0.09,2.13,0.09c0.99,0,2.57-0.14,2.57-0.14
				l-0.48,1.32c-0.4,0.03-1.88,0.06-1.88,0.85c0,0-0.19,8.03-0.19,10.31c0,2.28,0.09,5.7,0.16,7.4l-1.81,0.07L-115.89,174.08z"/>
			<path class="st3" d="M-107.84,172.76l0.32,0c0.47,0,1.26-0.1,1.26-0.76v-15.62c0-0.8-1.12-0.91-1.8-0.91c-0.24,0-0.41,0-0.41,0
				l0.46-1.31c0,0,0.03,0,0.07,0c0.35,0,1.81,0.12,3.28,0.12c1.65,0,3.34-0.16,3.34-0.16l-0.49,1.33c-0.61,0.02-1.27,0.15-1.27,0.94
				V172c0,0.29,0.19,0.5,0.6,0.62c0.35,0.11,0.77,0.14,1.06,0.14l0.33-0.01l-0.48,1.29h-0.05c-0.29,0-1.55-0.11-3.19-0.11
				c-1.83,0-3.56,0.16-3.56,0.16h-0.1L-107.84,172.76z"/>
			<path class="st3" d="M-90.04,174.12c-0.05-0.03-2.06-4.77-4.4-9.93c-1.41-3.15-3.01-6.24-3.69-7.57l-0.21-0.4
				c-0.35-0.68-1.11-0.77-1.52-0.77c-0.19,0-0.33,0.02-0.33,0.02l0.47-1.31c0,0,0.01-0.01,0.05-0.01c0.2,0,1.02,0.12,1.94,0.12
				c1.03,0,2.04-0.13,2.04-0.13l5.6,11.97c0.92,2.13,1.22,3.02,1.57,4.32c0.16-0.75,2.81-6.91,2.84-6.98c0,0,2.7-5.79,3.23-6.98
				c0.54-1.16,0.84-2.29,0.84-2.31h0.05c0.27,0,1.28,0.12,1.97,0.12c0.8,0,1.89-0.16,1.89-0.16l-0.52,1.33
				c-0.53,0.01-1.33,0.19-2.13,1.91c-0.56,1.18-2.76,5.95-2.76,5.95l-4.79,10.82H-90.04z"/>
			<path class="st3" d="M-55.39,155.93c0.03,0.02,0.01,6.08,0.03,6.54c3.4-0.2,5.22-1.64,5.22-4.13c0-2.26-2.23-2.5-3.9-2.5
				C-55.15,155.84-55.37,155.93-55.39,155.93 M-39.64,174.42c-3.05,0-5.44-0.18-8.33-3.35c-3.66-4-7.38-8.21-7.47-8.34
				c0.09,0.78,0.1,7.01,0.1,8.66c0,1.65,0.1,2.63,0.1,2.63c-0.02,0.01-0.05,0.02-0.11,0.02c-0.25,0-0.98-0.1-1.98-0.1
				c-1.2,0-3.27,0.16-3.27,0.16l0.5-1.32c0.77-0.02,1.25-0.15,1.47-0.37c0.13-0.15,0.13-0.29,0.13-0.38l0-15.66
				c0-0.82-1.14-0.92-1.63-0.92l0.22-1.29c0,0,0.03-0.01,0.08-0.01c0.39,0,2.08,0.11,3.34,0.11c0.61,0,0.97-0.03,1.39-0.06
				c0.58-0.04,1.29-0.07,2.87-0.07c1.87,0,5.42,0.75,5.42,3.61c0,2.95-2.81,4.79-5.42,5.53c8.08,8.26,9.88,9.57,13.65,9.57
				c0.28,0,0.56-0.03,0.84-0.07c1.62-0.24,4.11-1.58,4.17-4.15c0.03-1.44,0.08-3.37-4.31-3.65c-3.45-0.21-5.28-1.78-5.39-4.62
				c-0.06-1.56,0.54-3.08,1.68-4.27c1.42-1.47,3.45-2.28,5.73-2.28c2.91,0,4.16,1.38,4.17,1.38l-0.26,3.6l-1.34-0.12
				c-0.05-0.06-0.3-1.51-0.3-1.56c-0.06-0.48-1.41-1.14-3.38-1.14c-2.21,0-3.54,1.29-3.54,3.25c0,2.01,1.41,3.04,4.63,3.33
				c3.36,0.3,5.21,1.95,5.21,4.65C-30.66,171.12-35,174.42-39.64,174.42"/>
			<path class="st3" d="M-185.17,186.1c-2.97,0-5.57,1.51-6.61,3.85c-0.51,1.14-0.78,2.56-0.78,4.09c0,3.5,1.13,5.75,3.67,7.29
				c1.24,0.76,2.68,1.16,4.15,1.16c4.35,0,7.29-3.45,7.29-8.56c0-3.3-1.25-5.61-3.73-6.87C-182.38,186.44-183.75,186.1-185.17,186.1
				 M-185.9,204.55c-5.75,0-9.47-3.81-9.47-9.69c0-4.4,1.92-7.66,5.55-9.44c1.77-0.86,3.77-1.33,5.74-1.33
				c5.8,0,9.41,3.44,9.41,8.96C-174.66,199.7-179.38,204.55-185.9,204.55"/>
			<path class="st3" d="M-26.83,172.9l0.32,0c0.47,0,1.27-0.09,1.27-0.76v-15.63c0-0.8-0.96-0.91-1.53-0.91
				c-0.21,0-0.35,0.01-0.35,0.01l0.46-1.31c0,0,0.02-0.01,0.06-0.01c0.28,0,1.49,0.12,2.96,0.12c1.64,0,3.66-0.15,3.66-0.15
				l-0.49,1.32c-0.65,0.03-1.58,0.11-1.58,0.94v15.62c0,0.29,0.2,0.48,0.59,0.62c0.35,0.1,0.77,0.14,1.06,0.14l0.33-0.01l-0.46,1.3
				c-0.01,0.01-0.02,0.01-0.06,0.01c-0.29,0-1.54-0.11-3.19-0.11c-1.85,0-3.56,0.16-3.56,0.16l-0.09,0L-26.83,172.9z"/>
			<path class="st3" d="M5.92,173.94l-3.34,0.16l0.48-1.29c0.07-0.04,1.67-0.1,1.67-0.82l0.02-5.56c0-1-0.8-2.08-2-3.73
				c-0.42-0.59-0.89-1.24-1.4-1.97c-3.17-4.66-3.61-4.79-5.24-4.79c-1.83,0-3.97,0.05-4.11,0.12L-7.97,172
				c0,0.29,0.2,0.49,0.58,0.62c0.34,0.11,0.77,0.13,1.05,0.13l0.35-0.02l-0.46,1.31h-0.06c-0.29,0-1.55-0.12-3.19-0.12
				c-1.84,0-3.56,0.17-3.56,0.17l0.52-1.34l0.31,0.01c0.48,0,1.28-0.1,1.28-0.77l0.02-15.97h-0.01c-0.06,0-0.45-0.05-2.35-0.05
				c-1.29,0-2.61,0.02-2.61,0.02c-1.11,0-1.62,1.57-1.62,1.58l-0.83-0.53l1.07-2.89l7.69,0.12l7.87-0.1c2.88,0,3.56,1.17,5.21,4.05
				c0.31,0.52,0.64,1.12,1.04,1.76c0.64,1.06,1.18,1.93,1.65,2.67l0.88,1.43c0.34-0.84,2.7-4.42,4.28-6.79
				c0.8-1.21,1.42-2.14,1.51-2.31c0.32-0.54,0.35-0.79,0.35-0.79c0.01,0,0.04-0.01,0.07-0.01c0.16,0,0.64,0.1,1.24,0.1
				c0.71,0,2.5-0.16,2.5-0.16l0.08,0l-0.13,0.32c-0.26,0.14-1.46,0.65-2.23,1.76c-0.18,0.26-0.48,0.68-0.88,1.21
				c-1.86,2.51-5.73,7.75-5.73,9.54l0.02,5.08c0,0.3,0.19,0.5,0.54,0.62c0.32,0.12,0.72,0.15,1,0.15c0.25,0,0.43-0.01,0.43-0.01
				l-0.51,1.32L5.92,173.94z"/>
			<path class="st3" d="M-171,202.78c0.83-0.01,1.75-0.2,1.75-1.4v-15.24c0-0.64-0.99-0.74-1.59-0.74c-0.25,0-0.44,0.02-0.44,0.02
				l0.48-1.3c0.02-0.01,0.04-0.01,0.05-0.01c0.21,0,1.06,0.12,3.04,0.12c2.25,0,6.77-0.17,6.77-0.17c1.7,0,2.19,0.45,2.22,0.46
				c0.02,0.04-0.08,1.13-0.08,1.99l0.04,0.63c-0.02,0.06-1.17,0.67-1.22,0.7c-0.08-0.98-0.45-1.94-3.14-1.94l-2.96,0.03
				c0.01,0.03-0.12,0.49-0.12,1.44c0,0-0.01,4.45-0.02,5.11l6.99-0.05l-0.83,1.95l-6.13,0.03l0.04,7.55c0,0.29,0.17,0.5,0.52,0.63
				c0.32,0.12,0.71,0.15,1,0.15c0.27,0,0.48-0.02,0.48-0.02l-0.5,1.28c-0.01,0.02-0.03,0.02-0.06,0.02c-0.24,0-1.3-0.11-2.98-0.11
				c-1.87,0-3.81,0.14-3.81,0.14l-0.09,0.02L-171,202.78z"/>
			<path class="st3" d="M-66.88,174.08c-2.26-0.05-5.2-0.15-6.84-0.15c-0.72,0-1.38,0.06-1.96,0.09c-0.43,0.03-0.81,0.05-1.12,0.05
				l-0.56,0.01l0.52-1.27c0.1-0.04,1.55-0.05,1.55-1.43c0-0.31,0.01-0.99,0.02-1.87c0.03-1.79,0.09-4.47,0.09-7
				c0-2.07-0.06-4.03-0.09-5.25l-0.02-1.1c0-0.65-0.78-0.73-1.24-0.73c-0.2,0-0.35,0.01-0.35,0.01l0.49-1.27
				c0-0.01,0.02-0.01,0.06-0.01c0.31,0,1.49,0.09,2.59,0.09c2.25,0,6.75-0.17,6.75-0.17c1.72,0,2.22,0.44,2.24,0.46
				c0.01,0.05-0.09,1.12-0.09,1.98l0.04,0.64c-0.01,0.05-1.15,0.67-1.2,0.71c-0.1-0.98-0.45-1.95-3.15-1.95l-2.96,0.03
				c0.02,0.02-0.12,0.49-0.12,1.44l-0.02,5.12l0.55-0.06l2.89,0l3.64,0l-0.91,2.1c-0.01,0-0.06,0.01-0.17,0.01
				c-0.36,0-1.36-0.04-2.7-0.04c-1.02,0-2.03,0.03-2.67,0.05l-0.61,0.01l0.03,3.94c0,1.59,0.06,2.74,0.15,3.45l0.56-0.01
				c0.75,0.02,1.99,0.09,2.76,0.09c1.11,0,2.42-0.03,3.24-0.13c-0.04-0.04,0.15-2.5,0.15-2.5l1.7,1.2l0.03,2.31
				c0,0.79,0.09,1.14,0.09,1.14l-0.48,0.08L-66.88,174.08z"/>
			<path class="st3" d="M-128.78,203.98c-2.73-3.04-4.4-4.8-5.66-6.14c-0.69-0.72-1.25-1.31-1.8-1.92l-1.61-1.78
				c-2.13-2.35-3.84-4.26-4.61-5.04c0.09,1.42,0.01,6.95,0.01,6.95l0.06,7.8c-0.02,0-0.08,0.01-0.18,0.01
				c-0.28,0-0.84-0.04-1.68-0.04c-1.17,0-2.64,0.15-2.64,0.15l0.49-1.3c0.64-0.01,1.61-0.12,1.61-1.01l0.01-0.81
				c0.04-0.76,0.07-1.99,0.07-4.37c0,0,0.03-8.67,0.03-10.11c0-0.66-0.71-0.97-2.19-0.97l-0.39-0.02c-0.02-0.03-0.02-0.04,0.52-1.3
				c0.01-0.01,0.05-0.01,0.11-0.01c0.42,0,1.82,0.07,2.36,0.07c0.64,0,1.52-0.08,1.52-0.08c5.7,6.44,5.71,6.46,5.7,6.5
				c0.04,0,6.09,6.54,7.7,8.17l-0.01-11.59l-0.08-3.02c0.01-0.01,0.06-0.01,0.14-0.01c0.37,0,1.34,0.09,2.15,0.09
				c0.96,0,2.24-0.16,2.24-0.16l-0.48,1.31c-0.34,0.05-1.55,0.08-1.55,0.86c0,0-0.19,8.04-0.19,10.3c0,2.28,0.11,5.69,0.16,7.39
				l-1.8,0.09L-128.78,203.98z"/>
			<path class="st3" d="M-91.07,185.59c-1.13,0-1.34,0.09-1.35,0.1l0.02,6.54c0.54-0.05,1.86-0.05,3.05-0.57
				c1.45-0.63,2.18-1.84,2.18-3.56C-87.17,186.36-88.36,185.59-91.07,185.59 M-80.33,205.76c-0.84-0.47-1.88-1.68-3.08-3.09
				c-0.51-0.61-1.05-1.24-1.61-1.86c-3.68-4.06-7.38-8.23-7.47-8.33c0.11,0.76,0.12,6.99,0.12,8.65c0,1.65,0.09,2.62,0.09,2.62
				c-0.01,0.01-0.04,0.01-0.1,0.01c-0.27,0-0.99-0.09-1.97-0.09c-1.22,0-3.28,0.15-3.28,0.15l0.49-1.3
				c0.77-0.04,1.25-0.15,1.48-0.38c0.14-0.15,0.14-0.27,0.14-0.36l0.26-9.29c0-2.42-0.14-4.29-0.21-5.39
				c-0.03-0.47-0.05-0.8-0.05-0.98c0-0.81-1.14-0.91-1.63-0.91l0.21-1.3c0,0,0.04,0,0.09,0c0.39,0,2.08,0.12,3.36,0.12
				c0.58,0,0.94-0.03,1.37-0.06c0.59-0.04,1.29-0.07,2.86-0.07c1.87,0,5.41,0.75,5.41,3.62c0,3.03-2.29,4.34-4.55,5.22
				c-0.24,0.1-0.78,0.23-0.85,0.23c0.51,0.29,2.51,2.32,4.82,4.69c1.9,1.94,4.02,4.11,5.68,5.74c1.01,0.99,1.48,1.41,2.79,2.27
				l0.15,0.1L-80.33,205.76z"/>
			<path class="st3" d="M-111.67,185.9c-2.93,0-5.48,1.49-6.52,3.79c-0.5,1.15-0.77,2.56-0.77,4.06c0,3.46,1.11,5.7,3.63,7.23
				c1.22,0.75,2.64,1.14,4.1,1.14c4.31,0,7.2-3.41,7.2-8.47c0-3.24-1.24-5.53-3.69-6.8C-108.9,186.23-110.26,185.9-111.67,185.9
				 M-112.39,204.35c-5.8,0-9.57-3.83-9.57-9.78c0-4.45,1.94-7.74,5.6-9.52c1.81-0.88,3.81-1.34,5.8-1.34
				c5.87,0,9.51,3.47,9.51,9.05C-101.05,199.47-105.81,204.35-112.39,204.35"/>
			<path class="st3" d="M-74.59,202.61c0.55-0.01,1.07-0.11,1.07-0.78l0.11-9.25l-0.11-6.69c-0.06,0-0.43-0.05-2.33-0.05
				c-1.29,0-2.63,0.02-2.63,0.02c-1.1,0-1.6,1.56-1.6,1.58l-0.84-0.54l1.09-2.88l7.67,0.11l8.57-0.07l-0.33,3.2l-0.87,0.07
				c-0.05-0.07-0.04-0.74-0.43-1.17c-0.23-0.22-0.53-0.35-0.93-0.35c-1.82,0-4.07,0.06-4.2,0.13v0.86c-0.04,1.22-0.1,3.43-0.1,5.76
				c0,2.89,0.05,5.97,0.1,7.8l0.02,1.49c0,0.29,0.21,0.5,0.6,0.63c0.35,0.11,0.76,0.13,1.05,0.13l0.33-0.01l-0.45,1.3
				c0,0-0.03,0.01-0.06,0.01c-0.29,0-1.55-0.13-3.19-0.13c-1.81,0-2.99,0.16-2.99,0.16l-0.11,0.01L-74.59,202.61z"/>
			<path class="st3" d="M-46.38,202.64l0.31,0.02c0.47,0,1.26-0.1,1.26-0.77v-7.37c-0.01,0.02-0.19,0.02-0.51,0.02
				c-0.84,0-2.69-0.04-5.39-0.04c-3.85,0-5.55,0.07-5.55,0.07l0.05,7.29c0,0.29,0.19,0.49,0.58,0.62c0.35,0.09,0.77,0.12,1.06,0.12
				l0.32-0.01l-0.45,1.31h-0.06c-0.28,0-1.54-0.12-3.19-0.12c-1.82,0-3.55,0.16-3.55,0.16l0.51-1.34l0.32,0.01
				c0.48,0,1.26-0.11,1.26-0.76l0.25-9.4l-0.25-6.22c0-0.78-0.94-0.91-1.53-0.91c-0.2,0-0.34,0.01-0.34,0.01l0.46-1.31h0.07
				c0.27,0,1.49,0.12,2.95,0.12c1.65,0,3.66-0.16,3.66-0.16l-0.5,1.33c-0.75,0.02-1.57,0.14-1.57,0.93v6.23
				c0.01-0.01,0.22-0.02,0.57-0.02c1.05,0,3.3,0.06,5.02,0.06c2.32,0,5.88-0.09,5.88-0.09l-0.06-6.17c0-0.8-0.95-0.92-1.52-0.92
				c-0.2,0-0.35,0.02-0.36,0.02l0.46-1.31h0.07c0.28,0,1.49,0.11,2.96,0.11c1.64,0,3.65-0.15,3.65-0.15l-0.49,1.32
				c-0.76,0.02-1.59,0.14-1.59,0.93c0,0.13-0.01,0.42-0.04,0.86c-0.09,1.1-0.22,3.1-0.22,5.27c0,2.85,0.13,6.03,0.21,7.9
				c0.03,0.79,0.05,1.36,0.05,1.57c0,0.68,1.16,0.74,1.65,0.74l0.34-0.01l-0.46,1.31h-0.05c-0.29,0-1.56-0.12-3.19-0.12
				c-1.85,0-3.56,0.16-3.56,0.16H-47L-46.38,202.64z"/>
			<path class="st3" d="M28.18,194.54c0.29,0,1.36,0.07,2.6,0.07c1.5,0,3.03-0.08,3.03-0.08l-1.09-2.57l-0.93-2.23
				c-0.36-0.86-0.63-1.51-0.79-1.99c-0.46,1.18-2.82,6.63-2.9,6.81C28.11,194.54,28.13,194.54,28.18,194.54 M2.71,205.55
				c0,0,1.16-0.89,2.12-1.91c1.05-1.09,5.25-6.15,7.01-8.44c0,0,0.66-0.8,0.71-0.87c-0.3-0.37-0.55-0.7-0.61-0.81
				c-0.35-0.52-0.7-1.06-1.1-1.68c-0.45-0.74-0.98-1.56-1.65-2.54c-2.41-3.53-2.83-3.88-4.59-3.88l0.44-1.29l2.03,0.11
				c0.6,0,2.24-0.13,2.24-0.13c0.06,0.02,3.04,4.67,4.55,6.88l0.64,0.95c-0.05-0.1,0.19-0.42,0.4-0.71
				c0.73-0.99,1.73-2.26,2.63-3.44c1.05-1.36,2.06-2.64,2.19-2.85c0.31-0.54,0.33-0.79,0.33-0.79c0.02-0.01,0.06-0.01,0.14-0.01
				c0.28,0,1.02,0.06,1.58,0.06c0.71,0,1.92-0.06,1.92-0.06c0.01,0.12-1.2,0.69-2.07,1.84l-1.38,1.83
				c-1.25,1.68-2.93,3.93-4.07,5.41l-0.37,0.47c-0.15,0.17-0.04,0.31,0.07,0.45c0.14,0.18,0.3,0.4,0.35,0.47
				c0.85,1.26,3.65,5.27,5.03,7.22c0.32,0.46,0.45,0.62,0.55,0.62c0.11,0,0.16-0.07,0.27-0.25l3.47-7.49l4.75-10.77l2.17-0.05
				c0.07,0.07,1,2.74,3.3,7.84c2.65,5.85,3.68,7.78,5.08,10.23c0.18,0.32,0.82,0.95,1.77,0.95l0.21-3.81l1.39,0.14
				c0.05,0.04,0.3,1.6,0.3,1.61c0.06,0.48,1.46,1.17,3.5,1.17c1.25,0,2.29-0.4,2.94-1.14c0.52-0.56,0.8-1.31,0.8-2.19
				c0-2.07-1.54-3.18-4.88-3.47c-3.47-0.3-5.37-2.01-5.37-4.8c0-1.26,0.42-2.54,1.21-3.67c1.43-1.86,3.75-2.91,6.39-2.91
				c0.95,0,1.82,0.14,2.61,0.43c1.15,0.41,1.67,0.97,1.69,0.99l-0.27,3.72l-1.38-0.13c-0.04-0.05-0.3-1.62-0.3-1.62
				c-0.06-0.47-1.46-1.16-3.49-1.16c-2.17,0-3.59,1.16-3.74,3.04c0,2.36,1.53,3.45,4.85,3.75c3.47,0.31,5.38,2.02,5.38,4.81
				c0,1.26-0.42,2.53-1.22,3.67c-1.42,1.84-3.74,2.9-6.39,2.9c-0.97,0-1.85-0.15-2.61-0.43l-0.97-0.11l-0.09,0.33h-0.06
				c-0.32,0-2.03-0.15-2.96-0.15c-1.03,0-1.96,0.16-1.96,0.16l-3.47-7.4c-0.01,0.01-0.08,0.01-0.24,0.01
				c-0.49,0-1.77-0.02-3.81-0.02c-2.7,0-3.59,0.05-3.59,0.05l-0.67,1.48c-0.66,1.42-1.32,2.84-1.54,3.35c-0.13,0.3-0.13,0.55,0,0.74
				c0.31,0.46,1.3,0.52,1.72,0.52l-0.26,1.28h-0.11c-0.62,0-3.61-0.12-4.49-0.12c-1.37,0.01-2.74,0.12-2.74,0.12
				c-1.08-1.68-2.76-4.14-3.99-5.93l-0.85-1.26c-0.1-0.16-0.19-0.29-0.26-0.42l-0.53,0.42l-2.21,2.81
				c-1.76,2.24-3.94,5.02-4.08,5.25c-0.33,0.57-0.56,0.68-0.57,0.69l-3.91,0.05L2.71,205.55z"/>
			<path class="st3" d="M-23.19,202.69c0.55-0.01,1.07-0.12,1.07-0.78l0.1-9.24l-0.09-6.7c-0.06,0-0.42-0.06-2.34-0.06
				c-1.28,0-2.62,0.02-2.62,0.02c-1.11,0-1.61,1.56-1.63,1.58l-0.82-0.53l1.07-2.88l7.68,0.11l8.58-0.08l-0.33,3.21l-0.87,0.06
				c-0.06-0.06-0.01-0.74-0.41-1.17c-0.23-0.23-0.55-0.36-0.97-0.36c-1.77,0-4.05,0.07-4.2,0.13v0.86c-0.03,1.21-0.1,3.42-0.1,5.75
				c0,2.91,0.06,6,0.1,7.8l0.03,1.5c0,0.29,0.2,0.5,0.6,0.62c0.34,0.11,0.75,0.13,1.04,0.13l0.33-0.01l-0.46,1.3h-0.05
				c-0.3,0-1.55-0.12-3.2-0.12c-1.83,0-3,0.16-3,0.16l-0.1,0.01L-23.19,202.69z"/>
			<path class="st3" d="M1.31,204.04l-2.17-0.06c-1.98-0.06-4.27-0.13-5.8-0.13c-1.26,0-3.61,0.15-3.61,0.15l0.5-1.28
				c0.06-0.03,0.44-0.03,0.81-0.19c0.49-0.24,0.75-0.64,0.75-1.22c0-0.32,0-0.98,0.02-1.88c0.03-1.77,0.08-4.44,0.08-6.96
				c0-2.05-0.06-4.01-0.09-5.21l-0.01-1.09c0-0.66-0.99-0.74-1.58-0.74c-0.25,0-0.42,0.02-0.42,0.02l0.48-1.27h0.08
				c0.38,0,1.88,0.09,2.96,0.09c2.25,0,6.72-0.17,6.72-0.17c1.71,0,2.21,0.44,2.22,0.45c0.01,0.06-0.06,1.12-0.06,1.98l0.04,0.63
				c-0.03,0.06-1.15,0.67-1.21,0.71c-0.09-0.99-0.45-1.93-3.14-1.93l-2.95,0.02c0.04,0.03-0.11,0.49-0.11,1.44l-0.02,5.09l0.53-0.06
				l2.89,0.01l4.19-0.01l-0.9,2.1H1.29c-0.52,0-1.87-0.04-3.19-0.04c-1.02,0-2.02,0.04-2.66,0.06l-0.6,0.01
				c0.04,0.83,0.04,3.48,0.04,3.48v0.45c0,1.58,0.05,2.73,0.15,3.43l0.4-0.02c0.72,0.02,2.09,0.09,2.88,0.09
				c1.11,0,1.74-0.03,2.56-0.14l0.13-2.49l1.71,1.2l0.01,2.3c0,0.78,0.1,1.14,0.1,1.14l0.02,0.07H2.75L1.31,204.04z"/>
			<g>
				<g>
					<path class="st3" d="M61.1,187.26c0.77-0.15,1.2-0.61,1.2-1.3c0-0.93-0.53-1.38-1.61-1.38h-1.85v4.89h0.52v-2.2h1.16l1.41,2.18
						l0.02,0.03h0.59L61.1,187.26z M60.32,186.8h-0.96v-1.74h1.27c0.35,0,1.15,0.09,1.15,0.9C61.77,186.73,61.02,186.8,60.32,186.8z
						"/>
				</g>
				<path class="st3" d="M60.36,182.93c-2.26,0-4.1,1.84-4.1,4.1c0,2.26,1.84,4.1,4.1,4.1c2.26,0,4.1-1.84,4.1-4.1
					C64.46,184.77,62.62,182.93,60.36,182.93z M60.37,190.77c-2.07,0-3.69-1.64-3.69-3.74c0-2.13,1.59-3.74,3.69-3.74
					c2.1,0,3.69,1.6,3.69,3.73C64.05,189.12,62.43,190.77,60.37,190.77z"/>
			</g>
		</g>
		<polyline class="st3" points="5.75,5.75 -4.7,34.59 11.24,34.59 15.16,23.53 30.77,23.52 30.75,102.55 21.91,102.57 15.49,120.34 
			59.38,120.37 65.98,102.57 53.67,102.55 53.65,23.54 72.01,23.54 71.95,34.56 83.02,34.54 93.46,5.72 5.75,5.75 		"/>
		<path class="st3" d="M-14.83,23.5l0.06,96.88l-13.52,0.02c0,0-62.91-66.3-67.12-70.75c0.02,9.39-0.04,52.94-0.04,52.94h12.41
			l-6.44,17.88h-40.57l6.46-17.88h6.98l0-79.01h-14.77l6.42-17.84h24.9c0,0,48.1,50.18,64.78,67.81c0-5.43-0.05-49.97-0.05-49.97
			l-12.09,0l6.36-17.9H0.49l-6.42,17.9L-14.83,23.5"/>
		<line class="st2" x1="-314.72" y1="37.07" x2="-314.72" y2="37.07"/>
		<line class="st2" x1="-315.84" y1="37.82" x2="-315.84" y2="37.82"/>
		<path class="st3" d="M-196.64,161.29c-1.57-0.57-4.4,0.62-4.4,0.62c-0.66-4.01-5.19-9.56-5.19-9.56s9.03,8.4,9.58,8.93
			c0.1-0.2,2.9-6.27-2.78-11.56c-8.48-7.89-24.72-22.74-24.7-22.66c1.15,3.63,7.65,15.37,4.21,37.12l8.36,1.58l1.01,1.69
			c0,0,9.57,1.27,11.06,2.67c0,0,3.3,2.29-0.23,5.45c0,0,5.4-1.05,8.45-4.03c0,0,2.78-2.39-0.49-5.71L-196.64,161.29"/>
		<path class="st3" d="M-241.74,110.13L-361.57-1.71c-5.77-5.61-3.49-12.75-3.49-12.75l-9.81,21.6c-2.63,6.78,1.42,11.08,4.25,13.35
			c2.83,2.28,95.65,77.39,95.65,77.39l0.08,3.13l-92.3-70.86c-4.58-3.46-4.05-9.06-4.05-9.06l-6.68,13.76
			c-3.24,7.74,4.75,12.7,8.09,14.97c3.34,2.28,95.33,66.36,95.33,66.36l0.81,3.84c0,0-89.17-59.34-92.45-61.35
			c-3.95-2.43-3.64-8.04-3.64-8.04l-6.52,13.96c-2.73,5.69,5.06,9.66,8.5,11.73c2.02,1.22,51.91,30.99,93.01,55.43l-53.35,0.01
			c-7.86,0-10.49-2.33-10.49-2.33l7.15,6.68c1.22,1.11,4.43,5.16,9.14,5.16c3.34,0,19.68,0.02,19.68,0.02l3.87,1.67l-17.17,1.34
			c-3.41,0.15-4.37,0.51-8.92-2.02c-0.04-0.02,7.62,7.45,7.62,7.45c2.13,1.82,3.83,3.62,7.47,3.32c3.64-0.3,25.19-3.9,25.19-3.9
			l3.41,1.54l-22.61,4.93c-5.16,1.14-8.86-1.52-8.86-1.52s4.28,4.2,7.11,6.94c2.93,2.83,5.57,4.6,14.88,1.97
			c3.69-1.04,22.08-6.85,22.08-6.85l11.84,5.16c11.91,16.46,26.71,25.19,26.71,25.19c-2.83,3.34-0.43,7.26-0.43,7.26
			c2.46-4.99,7.97-7.72,12.13-7.11c3.62,0.53,2.65,4.93,2.78,4.78c2.23-2.83,4.07-6.23,1.82-9.11c-2.73-3.49-9.72-0.47-9.72-0.47
			l-6.82-12.45l9.25-5.28C-215.98,131.97-241.74,110.13-241.74,110.13"/>
		<path class="st3" d="M-171.11,5.74l-6.59,17.84l11.16-0.03v51.81c0,9.53-1.73,14.83-6.39,19.56c-3.66,3.71-9.89,6.02-16.25,6.02
			c-7.72,0-14.62-2.58-18.95-7.08c-4.35-4.31-6.45-11.41-6.45-21.73l-0.02-66.4l-32.35,0.08l-6.58,17.76l13.78-0.08v49.33
			c0,0.24,0.01,0.48,0.01,0.72c-3.5-4.53-6.64-7.9-8.34-9.86c-1.55-1.79-57.19-64.31-57.19-64.31c-4.82-5.34-3.12-9.52-2.98-9.84
			l-6.49,14.56c-1.44,4,1.25,6.59,3.24,8.89c1.99,2.29,60.45,63.36,60.45,63.36l-0.39,3.36l-55.35-55.26
			c-4.45-4.56-3.24-8.01-3.03-8.5l-5.94,13.38c-1.35,4.15,2.9,6.89,5.84,9.72c3.13,3.01,64.72,60.61,69.76,65.2
			c10.78,9.82,16.04,22.79,16.04,22.79c0.94-4.83,1.17-9.49,0.89-13.95c11.04,8.58,24.61,9.66,30.67,9.66
			c28.62,0,47.12-18.49,47.12-47.11l0.11-52.06h8.22l6.38-17.84H-171.11z"/>
		<path class="st2" d="M-309.84,15.96l0.03-0.06C-309.81,15.89-309.82,15.91-309.84,15.96"/>
		<g>
			<g>
				<path class="st3" d="M87.43,33.01c0.35-0.07,0.55-0.28,0.55-0.6c0-0.43-0.24-0.63-0.74-0.63h-0.85v2.25h0.24v-1.01h0.53l0.65,1
					l0.01,0.01h0.27L87.43,33.01z M87.07,32.79h-0.44v-0.8h0.58c0.16,0,0.53,0.04,0.53,0.41C87.74,32.76,87.4,32.79,87.07,32.79z"/>
			</g>
			<path class="st3" d="M87.09,31.02c-1.04,0-1.89,0.84-1.89,1.88c0,1.04,0.85,1.88,1.89,1.88c1.04,0,1.88-0.84,1.88-1.88
				C88.98,31.86,88.13,31.02,87.09,31.02z M87.09,34.62c-0.95,0-1.7-0.76-1.7-1.72c0-0.98,0.73-1.72,1.7-1.72
				c0.97,0,1.7,0.74,1.7,1.71C88.79,33.86,88.04,34.62,87.09,34.62z"/>
		</g>
	</g>
</g>
<g id="Layer_1">
</g>
<g id="Layer_2">
	<g>
		<line class="st4" x1="52.65" y1="32.39" x2="52.65" y2="32.39"/>
		<line class="st4" x1="52.36" y1="32.58" x2="52.36" y2="32.58"/>
		<g>
			<path class="st4" d="M83.41,64.74c-0.41-0.15-1.14,0.16-1.14,0.16c-0.17-1.05-1.35-2.49-1.35-2.49S83.26,64.6,83.41,64.74
				c0.02-0.06,0.75-1.64-0.73-3.02c-2.21-2.06-6.44-5.92-6.43-5.9c0.3,0.95,1.99,4,1.1,9.67l2.18,0.41l0.26,0.44
				c0,0,2.49,0.33,2.88,0.7c0,0,0.86,0.6-0.06,1.42c0,0,1.41-0.27,2.2-1.05c0,0,0.72-0.62-0.13-1.49L83.41,64.74"/>
		</g>
		<path class="st4" d="M83.41,64.74C83.41,64.74,83.41,64.74,83.41,64.74C83.41,64.74,83.41,64.74,83.41,64.74
			C83.4,64.74,83.4,64.74,83.41,64.74L83.41,64.74"/>
		<g>
			<path class="st4" d="M71.66,51.42L40.45,22.29c-1.5-1.46-0.91-3.32-0.91-3.32l-2.56,5.63c-0.69,1.77,0.37,2.88,1.11,3.48
				c0.74,0.59,24.91,20.16,24.91,20.16l0.02,0.82L38.99,30.59c-1.19-0.9-1.05-2.36-1.05-2.36l-1.74,3.58
				c-0.84,2.02,1.24,3.31,2.11,3.9C39.17,36.31,63.13,53,63.13,53l0.21,1c0,0-23.22-15.45-24.08-15.98
				c-1.03-0.63-0.95-2.09-0.95-2.09l-1.7,3.64c-0.71,1.48,1.32,2.52,2.21,3.06c0.53,0.32,13.52,8.07,24.22,14.44l-13.89,0
				c-2.05,0-2.73-0.61-2.73-0.61l1.86,1.74c0.32,0.29,1.15,1.34,2.38,1.34c0.87,0,5.12,0.01,5.12,0.01l1.01,0.44l-4.47,0.35
				c-0.89,0.04-1.14,0.13-2.32-0.53c-0.01-0.01,1.98,1.94,1.98,1.94c0.55,0.47,1,0.94,1.95,0.86c0.95-0.08,6.56-1.01,6.56-1.01
				l0.89,0.4l-5.89,1.29c-1.34,0.3-2.31-0.4-2.31-0.4s1.11,1.09,1.85,1.81c0.76,0.74,1.45,1.2,3.87,0.51
				c0.96-0.27,5.75-1.79,5.75-1.79l3.08,1.34c3.1,4.29,6.96,6.56,6.96,6.56c-0.74,0.87-0.11,1.89-0.11,1.89
				c0.64-1.3,2.08-2.01,3.16-1.85c0.94,0.14,0.69,1.29,0.72,1.24c0.58-0.74,1.06-1.62,0.47-2.37c-0.71-0.91-2.53-0.12-2.53-0.12
				l-1.78-3.24l2.41-1.38C78.37,57.11,71.66,51.42,71.66,51.42"/>
		</g>
		<path class="st4" d="M70.01,39.32c-0.4-0.47-14.9-16.75-14.9-16.75c-1.26-1.39-0.81-2.48-0.78-2.56l-1.69,3.79
			c-0.38,1.04,0.33,1.72,0.84,2.31c0.52,0.6,15.74,16.5,15.74,16.5l-0.1,0.87L54.71,29.1c-1.16-1.19-0.84-2.09-0.79-2.21l-1.55,3.49
			c-0.35,1.08,0.76,1.79,1.52,2.53c0.81,0.78,16.86,15.78,18.17,16.98c2.81,2.56,4.18,5.94,4.18,5.94
			C77.86,47.53,71.57,41.13,70.01,39.32"/>
		<polyline class="st4" points="54.33,20.01 54.34,20.01 54.33,20.01 		"/>
		<path class="st4" d="M53.93,26.89l0.01-0.02C53.93,26.87,53.93,26.88,53.93,26.89"/>
		<g>
			<polyline class="st4" points="136.12,24.23 133.39,31.74 137.54,31.74 138.57,28.86 142.63,28.86 142.63,49.44 140.32,49.45 
				138.65,54.08 150.08,54.08 151.8,49.45 148.6,49.44 148.59,28.86 153.37,28.86 153.36,31.74 156.24,31.73 158.96,24.22 
				136.12,24.23 			"/>
			<path class="st4" d="M90.05,24.23l-1.72,4.65l2.91-0.01v13.49c0,2.48-0.45,3.86-1.66,5.09c-0.95,0.97-2.57,1.57-4.23,1.57
				c-2.01,0-3.81-0.67-4.94-1.84c-1.13-1.12-1.68-2.97-1.68-5.66l-0.01-17.29l-8.43,0.02l-1.71,4.63l3.59-0.02V41.7
				c0,12.06,9.41,13,12.29,13c7.46,0,12.27-4.82,12.27-12.27l0.03-13.56h2.14l1.66-4.65H90.05"/>
			<path class="st4" d="M130.76,28.85l0.01,25.23l-3.52,0c0,0-16.38-17.27-17.48-18.43c0,2.45-0.01,13.79-0.01,13.79h3.23
				l-1.68,4.66h-10.57l1.68-4.66h1.82l0-20.58h-3.85l1.67-4.65h6.49c0,0,12.53,13.07,16.87,17.66c0-1.42-0.01-13.01-0.01-13.01
				l-3.15,0l1.66-4.66h10.82l-1.67,4.66L130.76,28.85"/>
			<g>
				<path class="st4" d="M160.49,23.96L160.49,23.96c-0.85,0-1.53,0.7-1.53,1.58c0,0.9,0.68,1.59,1.53,1.59
					c0.85,0,1.52-0.7,1.52-1.59C162,24.66,161.33,23.96,160.49,23.96z M160.49,26.89c-0.69,0-1.24-0.59-1.24-1.35
					c0-0.74,0.56-1.33,1.23-1.33h0.01c0.69,0,1.23,0.6,1.23,1.34C161.73,26.3,161.18,26.89,160.49,26.89z"/>
				<path class="st4" d="M160.77,25.6v-0.01c0.18-0.06,0.33-0.2,0.33-0.43c0-0.17-0.06-0.29-0.16-0.37
					c-0.11-0.08-0.27-0.14-0.53-0.14c-0.21,0-0.34,0.03-0.48,0.04v1.77h0.27V25.7h0.19c0.22,0,0.33,0.08,0.37,0.31
					c0.04,0.23,0.07,0.39,0.12,0.45h0.28c-0.03-0.05-0.06-0.16-0.11-0.43C161.02,25.77,160.92,25.63,160.77,25.6z M160.39,25.48
					h-0.19v-0.6c0.05-0.01,0.11-0.01,0.19-0.01c0.31,0,0.42,0.15,0.42,0.31C160.81,25.4,160.62,25.48,160.39,25.48z"/>
			</g>
		</g>
		<g>
			<g>
				<path class="st4" d="M97.27,67.86c-0.95,0-1.82-0.35-2.12-0.85c-0.27-0.45-0.27-0.77-0.27-2.55l0.01-1.35
					c0-0.17-0.3-0.19-0.43-0.19l-0.09,0l0.13-0.34h0.02c0.13,0,0.75,0.03,0.98,0.03c0.26,0,0.91-0.04,0.91-0.04l-0.14,0.34
					c-0.18,0-0.47,0.04-0.47,0.3l0,2.34c0,0.67,0,1.79,1.41,1.79c1.04,0,1.53-0.51,1.53-1.63l0.01-2.6c0-0.19-0.38-0.19-0.38-0.19
					l0.12-0.34h0.02c0.08,0,0.42,0.03,0.69,0.03c0.3,0,0.71-0.04,0.71-0.04l-0.12,0.35l-0.09,0c-0.13,0-0.34,0.04-0.34,0.29
					l-0.04,2.34c0,0.34-0.05,1.18-0.47,1.67C98.47,67.66,97.78,67.86,97.27,67.86"/>
				<path class="st4" d="M105.14,67.75c-0.71-0.79-1.15-1.25-1.48-1.6c-0.17-0.19-0.32-0.34-0.46-0.49l-0.53-0.58
					c-0.5-0.56-0.91-1-1.09-1.19c0.02,0.37,0,1.81,0,1.81l0.03,2.04l-0.5-0.02l-0.69,0.04l0.13-0.34c0.16,0,0.42-0.03,0.42-0.26
					l0.01-0.21c0-0.2,0.02-0.52,0.02-1.13l0.01-2.63c0-0.22-0.25-0.25-0.36-0.25l0.09-0.34h0.02c0.05,0,0.22,0.02,0.36,0.02
					c0.17,0,0.39-0.02,0.39-0.02c1.48,1.68,1.49,1.68,1.48,1.69c0.01,0,1.59,1.7,2,2.12c-0.02-0.66,0-3.01,0-3.01l-0.03-0.78
					c0,0,0.02-0.01,0.04-0.01c0.1,0,0.35,0.02,0.56,0.02c0.26,0,0.67-0.04,0.67-0.04l-0.12,0.34c-0.1,0.01-0.49,0.02-0.49,0.22
					c0,0-0.05,2.09-0.05,2.68c0,0.59,0.02,1.48,0.04,1.92L105.14,67.75L105.14,67.75"/>
				<path class="st4" d="M107.23,67.41l0.08,0c0.12,0,0.33-0.03,0.33-0.2v-4.06c0-0.21-0.29-0.24-0.47-0.24c-0.06,0-0.11,0-0.11,0
					l0.12-0.34c0,0,0.01,0,0.02,0c0.09,0,0.47,0.03,0.85,0.03c0.43,0,0.86-0.04,0.86-0.04l-0.13,0.35
					c-0.16,0.01-0.33,0.04-0.33,0.24v4.05c0,0.08,0.05,0.13,0.15,0.16c0.09,0.03,0.2,0.04,0.28,0.04l0.09,0l-0.12,0.34
					c0,0-0.01,0-0.01,0c-0.08,0-0.4-0.03-0.83-0.03c-0.48,0-0.93,0.04-0.93,0.04h-0.02L107.23,67.41"/>
				<path class="st4" d="M111.85,67.76c-0.01-0.01-0.53-1.24-1.14-2.58c-0.37-0.82-0.78-1.62-0.96-1.97l-0.05-0.1
					c-0.09-0.18-0.29-0.2-0.4-0.2c-0.05,0-0.08,0-0.08,0l0.12-0.34c0,0,0,0,0.01,0c0.05,0,0.26,0.03,0.5,0.03
					c0.27,0,0.53-0.03,0.53-0.03l1.46,3.11c0.24,0.55,0.32,0.78,0.41,1.12c0.04-0.2,0.73-1.79,0.74-1.81c0,0,0.7-1.51,0.84-1.81
					c0.14-0.3,0.22-0.6,0.22-0.6h0.01c0.07,0,0.33,0.03,0.51,0.03c0.21,0,0.49-0.04,0.49-0.04l-0.13,0.35
					c-0.14,0-0.35,0.05-0.55,0.49c-0.15,0.31-0.72,1.54-0.72,1.54l-1.24,2.81H111.85"/>
				<path class="st4" d="M124.94,67.84c-0.79,0-1.41-0.05-2.16-0.87c-0.95-1.04-1.92-2.13-1.94-2.17c0.02,0.2,0.03,1.82,0.03,2.25
					c0,0.43,0.03,0.68,0.03,0.68c0,0-0.01,0.01-0.03,0.01c-0.07,0-0.25-0.03-0.51-0.03c-0.31,0-0.85,0.04-0.85,0.04l0.13-0.34
					c0.2-0.01,0.33-0.04,0.38-0.1c0.04-0.04,0.04-0.07,0.04-0.1l0-4.07c0-0.21-0.3-0.24-0.42-0.24l0.06-0.34c0,0,0.01,0,0.02,0
					c0.1,0,0.54,0.03,0.87,0.03c0.16,0,0.25-0.01,0.36-0.01c0.15-0.01,0.34-0.02,0.75-0.02c0.49,0,1.41,0.2,1.41,0.94
					c0,0.77-0.73,1.24-1.41,1.44c2.1,2.15,2.57,2.48,3.54,2.48c0.07,0,0.15-0.01,0.22-0.02c0.42-0.06,1.07-0.41,1.08-1.08
					c0.01-0.37,0.02-0.88-1.12-0.95c-0.9-0.06-1.37-0.46-1.4-1.2c-0.02-0.41,0.14-0.8,0.44-1.11c0.37-0.38,0.9-0.59,1.49-0.59
					c0.76,0,1.08,0.36,1.08,0.36l-0.07,0.93l-0.35-0.03c-0.01-0.01-0.08-0.39-0.08-0.4c-0.02-0.12-0.37-0.3-0.88-0.3
					c-0.57,0-0.92,0.33-0.92,0.84c0,0.52,0.37,0.79,1.2,0.87c0.88,0.08,1.35,0.51,1.35,1.21C127.27,66.99,126.15,67.84,124.94,67.84
					 M120.85,63.04c0.01,0.01,0,1.58,0.01,1.7c0.88-0.05,1.36-0.43,1.36-1.07c0-0.59-0.58-0.65-1.01-0.65
					C120.91,63.02,120.86,63.04,120.85,63.04"/>
				<path class="st4" d="M128.27,67.45l0.08,0c0.12,0,0.33-0.02,0.33-0.2v-4.06c0-0.21-0.25-0.24-0.4-0.24c-0.05,0-0.09,0-0.09,0
					l0.12-0.34c0,0,0.01,0,0.01,0c0.07,0,0.39,0.03,0.77,0.03c0.43,0,0.95-0.04,0.95-0.04l-0.13,0.34
					c-0.17,0.01-0.41,0.03-0.41,0.25v4.05c0,0.07,0.05,0.13,0.15,0.16c0.09,0.03,0.2,0.04,0.28,0.04l0.08,0l-0.12,0.34
					c0,0-0.01,0-0.01,0c-0.07,0-0.4-0.03-0.83-0.03c-0.48,0-0.92,0.04-0.92,0.04l-0.02,0L128.27,67.45"/>
				<path class="st4" d="M136.77,67.72l-0.87,0.04l0.12-0.33c0.02-0.01,0.43-0.03,0.43-0.21l0.01-1.44c0-0.26-0.21-0.54-0.52-0.97
					c-0.11-0.15-0.23-0.32-0.36-0.51c-0.82-1.21-0.94-1.24-1.36-1.24c-0.47,0-1.03,0.01-1.07,0.03l0,4.14
					c0,0.08,0.05,0.13,0.15,0.16c0.09,0.03,0.2,0.03,0.27,0.03l0.09,0l-0.12,0.34h-0.02c-0.07,0-0.4-0.03-0.83-0.03
					c-0.48,0-0.92,0.04-0.92,0.04l0.13-0.35l0.08,0c0.13,0,0.33-0.03,0.33-0.2l0.01-4.15h0c-0.02,0-0.12-0.01-0.61-0.01
					c-0.34,0-0.68,0-0.68,0c-0.29,0-0.42,0.41-0.42,0.41l-0.22-0.14l0.28-0.75l2,0.03l2.04-0.03c0.75,0,0.93,0.3,1.35,1.05
					c0.08,0.14,0.17,0.29,0.27,0.46c0.17,0.28,0.31,0.5,0.43,0.69l0.23,0.37c0.09-0.22,0.7-1.15,1.11-1.76
					c0.21-0.31,0.37-0.56,0.39-0.6c0.08-0.14,0.09-0.2,0.09-0.2c0,0,0.01,0,0.02,0c0.04,0,0.17,0.03,0.32,0.03
					c0.18,0,0.65-0.04,0.65-0.04l0.02,0l-0.03,0.08c-0.07,0.04-0.38,0.17-0.58,0.46c-0.05,0.07-0.13,0.18-0.23,0.31
					c-0.48,0.65-1.49,2.01-1.49,2.48l0.01,1.32c0,0.08,0.05,0.13,0.14,0.16c0.08,0.03,0.19,0.04,0.26,0.04c0.06,0,0.11,0,0.11,0
					l-0.13,0.34L136.77,67.72"/>
				<path class="st4" d="M117.87,67.75c-0.59-0.01-1.35-0.04-1.78-0.04c-0.19,0-0.36,0.02-0.51,0.02c-0.11,0.01-0.21,0.01-0.29,0.01
					l-0.14,0l0.13-0.33c0.03-0.01,0.4-0.01,0.4-0.37c0-0.08,0-0.26,0.01-0.49c0.01-0.46,0.02-1.16,0.02-1.82
					c0-0.54-0.01-1.05-0.02-1.36l-0.01-0.29c0-0.17-0.2-0.19-0.32-0.19c-0.05,0-0.09,0-0.09,0l0.13-0.33c0,0,0.01,0,0.01,0
					c0.08,0,0.39,0.02,0.67,0.02c0.58,0,1.75-0.04,1.75-0.04c0.45,0,0.58,0.11,0.58,0.12c0,0.01-0.02,0.29-0.02,0.51l0.01,0.16
					c0,0.01-0.3,0.17-0.31,0.18c-0.02-0.26-0.12-0.5-0.82-0.5l-0.77,0.01c0.01,0.01-0.03,0.13-0.03,0.37l0,1.33l0.14-0.01l0.75,0
					l0.95,0l-0.24,0.55c0,0-0.02,0-0.04,0c-0.09,0-0.35-0.01-0.7-0.01c-0.27,0-0.53,0.01-0.7,0.01l-0.16,0l0.01,1.02
					c0,0.41,0.02,0.71,0.04,0.89l0.15,0c0.19,0.01,0.52,0.02,0.71,0.02c0.29,0,0.63-0.01,0.84-0.03c-0.01-0.01,0.04-0.65,0.04-0.65
					l0.44,0.31l0.01,0.6c0,0.2,0.02,0.3,0.02,0.3l-0.12,0.02L117.87,67.75"/>
			</g>
			<g>
				<path class="st4" d="M86.15,75.66c-1.49,0-2.46-0.99-2.46-2.52c0-1.14,0.5-1.99,1.44-2.45c0.46-0.22,0.98-0.34,1.49-0.34
					c1.51,0,2.44,0.89,2.44,2.33C89.07,74.41,87.84,75.66,86.15,75.66 M86.34,70.88c-0.77,0-1.45,0.39-1.72,1
					c-0.13,0.3-0.2,0.66-0.2,1.06c0,0.91,0.29,1.49,0.95,1.89c0.32,0.2,0.7,0.3,1.08,0.3c1.13,0,1.89-0.9,1.89-2.22
					c0-0.86-0.33-1.46-0.97-1.79C87.07,70.96,86.71,70.88,86.34,70.88"/>
				<path class="st4" d="M90.02,75.2c0.22,0,0.45-0.05,0.45-0.36v-3.96c0-0.17-0.26-0.19-0.41-0.19c-0.07,0-0.11,0.01-0.11,0.01
					l0.13-0.34c0,0,0.01,0,0.01,0c0.05,0,0.28,0.03,0.79,0.03c0.59,0,1.76-0.04,1.76-0.04c0.44,0,0.57,0.12,0.58,0.12
					c0.01,0.01-0.02,0.29-0.02,0.52l0.01,0.16c-0.01,0.01-0.3,0.17-0.32,0.18c-0.02-0.25-0.12-0.5-0.82-0.5l-0.77,0.01
					c0,0.01-0.03,0.13-0.03,0.37c0,0,0,1.16-0.01,1.33l1.82-0.01l-0.22,0.51l-1.59,0.01l0.01,1.96c0,0.07,0.05,0.13,0.14,0.16
					c0.08,0.03,0.19,0.04,0.26,0.04c0.07,0,0.12,0,0.12,0l-0.13,0.33c0,0-0.01,0-0.01,0c-0.06,0-0.34-0.03-0.77-0.03
					c-0.49,0-0.99,0.04-0.99,0.04l-0.02,0L90.02,75.2"/>
				<path class="st4" d="M100.99,75.52c-0.71-0.79-1.14-1.25-1.47-1.59c-0.18-0.19-0.32-0.34-0.47-0.5l-0.42-0.46
					c-0.55-0.61-1-1.11-1.2-1.31c0.03,0.37,0.01,1.81,0.01,1.81l0.01,2.03c0,0-0.02,0-0.05,0c-0.07,0-0.22-0.01-0.44-0.01
					c-0.31,0-0.69,0.04-0.69,0.04l0.13-0.34c0.16,0,0.42-0.03,0.42-0.26l0-0.21c0.01-0.2,0.02-0.52,0.02-1.13
					c0,0,0.01-2.25,0.01-2.62c0-0.17-0.19-0.25-0.57-0.25l-0.1-0.01c-0.01-0.01-0.01-0.01,0.13-0.34c0,0,0.01,0,0.03,0
					c0.11,0,0.47,0.02,0.61,0.02c0.17,0,0.39-0.02,0.39-0.02c1.48,1.67,1.49,1.68,1.48,1.69c0.01,0,1.58,1.7,2,2.12l0-3.01
					l-0.02-0.78c0,0,0.01,0,0.04,0c0.1,0,0.35,0.02,0.56,0.02c0.25,0,0.58-0.04,0.58-0.04l-0.12,0.34c-0.09,0.01-0.4,0.02-0.4,0.22
					c0,0-0.05,2.09-0.05,2.67c0,0.59,0.03,1.48,0.04,1.92L100.99,75.52L100.99,75.52"/>
				<path class="st4" d="M113.57,75.98c-0.22-0.12-0.49-0.44-0.8-0.8c-0.13-0.16-0.27-0.32-0.42-0.48
					c-0.96-1.05-1.92-2.14-1.94-2.16c0.03,0.2,0.03,1.81,0.03,2.24c0,0.43,0.02,0.68,0.02,0.68c0,0-0.01,0-0.03,0
					c-0.07,0-0.26-0.02-0.51-0.02c-0.32,0-0.85,0.04-0.85,0.04l0.13-0.34c0.2-0.01,0.32-0.04,0.38-0.1
					c0.04-0.04,0.04-0.07,0.04-0.09l0.07-2.41c0-0.63-0.04-1.11-0.05-1.4c-0.01-0.12-0.01-0.21-0.01-0.25
					c0-0.21-0.29-0.23-0.42-0.23l0.06-0.34c0,0,0.01,0,0.02,0c0.1,0,0.54,0.03,0.87,0.03c0.15,0,0.25-0.01,0.36-0.02
					c0.15-0.01,0.33-0.02,0.74-0.02c0.49,0,1.41,0.19,1.41,0.94c0,0.79-0.6,1.13-1.18,1.35c-0.06,0.02-0.2,0.06-0.22,0.06
					c0.13,0.07,0.65,0.6,1.25,1.22c0.49,0.5,1.04,1.07,1.47,1.49c0.26,0.26,0.38,0.37,0.72,0.59l0.04,0.03L113.57,75.98
					 M110.78,70.74c-0.29,0-0.35,0.02-0.35,0.02l0.01,1.7c0.14-0.01,0.48-0.01,0.79-0.15c0.37-0.16,0.56-0.48,0.56-0.92
					C111.79,70.94,111.48,70.74,110.78,70.74"/>
				<path class="st4" d="M105.24,75.61c-1.51,0-2.48-1-2.48-2.54c0-1.16,0.5-2.01,1.45-2.47c0.47-0.23,0.99-0.35,1.51-0.35
					c1.52,0,2.47,0.9,2.47,2.35C108.18,74.35,106.95,75.61,105.24,75.61 M105.42,70.82c-0.76,0-1.42,0.39-1.69,0.98
					c-0.13,0.3-0.2,0.67-0.2,1.06c0,0.9,0.29,1.48,0.94,1.88c0.32,0.2,0.69,0.3,1.07,0.3c1.12,0,1.87-0.89,1.87-2.2
					c0-0.84-0.32-1.44-0.96-1.76C106.15,70.91,105.79,70.82,105.42,70.82"/>
				<path class="st4" d="M115.05,75.16c0.14,0,0.28-0.03,0.28-0.2l0.03-2.4l-0.03-1.74c-0.01,0-0.11-0.01-0.6-0.01
					c-0.34,0-0.68,0.01-0.68,0.01c-0.29,0-0.42,0.41-0.42,0.41l-0.22-0.14l0.28-0.75l1.99,0.03l2.23-0.02l-0.09,0.83l-0.23,0.02
					c-0.01-0.02-0.01-0.19-0.11-0.3c-0.06-0.06-0.14-0.09-0.24-0.09c-0.47,0-1.06,0.02-1.09,0.03v0.22
					c-0.01,0.32-0.03,0.89-0.03,1.5c0,0.75,0.01,1.55,0.03,2.02l0,0.39c0,0.08,0.05,0.13,0.16,0.16c0.09,0.03,0.2,0.04,0.27,0.04
					l0.09,0l-0.12,0.34c0,0-0.01,0-0.02,0c-0.07,0-0.4-0.03-0.83-0.03c-0.47,0-0.78,0.04-0.78,0.04l-0.03,0L115.05,75.16"/>
				<path class="st4" d="M122.38,75.17l0.08,0.01c0.12,0,0.33-0.03,0.33-0.2v-1.91c0,0.01-0.05,0.01-0.13,0.01
					c-0.22,0-0.7-0.01-1.4-0.01c-1,0-1.44,0.02-1.44,0.02l0.01,1.89c0,0.07,0.05,0.13,0.15,0.16c0.09,0.02,0.2,0.03,0.28,0.03
					l0.08,0l-0.12,0.34c0,0-0.01,0-0.02,0c-0.07,0-0.4-0.03-0.83-0.03c-0.47,0-0.92,0.04-0.92,0.04l0.13-0.35l0.08,0
					c0.12,0,0.33-0.03,0.33-0.2l0.06-2.44L119,70.92c0-0.2-0.25-0.23-0.4-0.23c-0.05,0-0.09,0-0.09,0l0.12-0.34c0,0,0.01,0,0.02,0
					c0.07,0,0.39,0.03,0.77,0.03c0.43,0,0.95-0.04,0.95-0.04l-0.13,0.34c-0.2,0.01-0.41,0.03-0.41,0.24v1.62
					c0,0,0.06-0.01,0.15-0.01c0.27,0,0.86,0.01,1.3,0.01c0.6,0,1.53-0.02,1.53-0.02l-0.01-1.6c0-0.21-0.25-0.24-0.39-0.24
					c-0.05,0-0.09,0.01-0.09,0.01l0.12-0.34c0,0,0.01,0,0.02,0c0.07,0,0.39,0.03,0.77,0.03c0.43,0,0.95-0.04,0.95-0.04l-0.13,0.34
					c-0.2,0.01-0.41,0.04-0.41,0.24c0,0.03,0,0.11-0.01,0.22c-0.02,0.29-0.06,0.8-0.06,1.37c0,0.74,0.04,1.57,0.06,2.05
					c0.01,0.21,0.01,0.35,0.01,0.41c0,0.18,0.3,0.19,0.43,0.19l0.09,0l-0.12,0.34c0,0-0.01,0-0.02,0c-0.07,0-0.4-0.03-0.83-0.03
					c-0.48,0-0.92,0.04-0.92,0.04h-0.02L122.38,75.17"/>
				<path class="st4" d="M135.13,75.92c0,0,0.3-0.23,0.55-0.49c0.27-0.28,1.36-1.6,1.82-2.19c0,0,0.17-0.21,0.18-0.23
					c-0.08-0.1-0.14-0.18-0.16-0.21c-0.09-0.14-0.18-0.27-0.28-0.44c-0.12-0.19-0.26-0.41-0.43-0.66c-0.62-0.92-0.73-1.01-1.19-1.01
					l0.11-0.34l0.53,0.03c0.15,0,0.58-0.03,0.58-0.03c0.01,0.01,0.79,1.21,1.18,1.79l0.17,0.25c-0.01-0.03,0.05-0.11,0.1-0.18
					c0.19-0.26,0.45-0.59,0.68-0.89c0.27-0.35,0.53-0.69,0.57-0.74c0.08-0.14,0.09-0.21,0.09-0.21c0,0,0.02,0,0.04,0
					c0.07,0,0.27,0.02,0.41,0.02c0.19,0,0.5-0.01,0.5-0.01c0,0.03-0.31,0.18-0.54,0.48l-0.36,0.47c-0.32,0.44-0.76,1.02-1.06,1.41
					l-0.1,0.12c-0.04,0.04-0.01,0.08,0.02,0.12c0.04,0.05,0.08,0.1,0.09,0.12c0.22,0.33,0.95,1.37,1.31,1.88
					c0.08,0.12,0.12,0.16,0.14,0.16c0.03,0,0.04-0.02,0.07-0.07l0.9-1.95l1.23-2.8l0.56-0.01c0.02,0.02,0.26,0.71,0.86,2.04
					c0.69,1.52,0.96,2.02,1.32,2.66c0.05,0.08,0.21,0.25,0.46,0.25l0.06-0.99l0.36,0.04c0.01,0.01,0.08,0.42,0.08,0.42
					c0.02,0.12,0.38,0.3,0.91,0.3c0.32,0,0.6-0.1,0.76-0.3c0.14-0.15,0.21-0.34,0.21-0.57c0-0.54-0.4-0.82-1.27-0.9
					c-0.9-0.08-1.39-0.52-1.39-1.25c0-0.33,0.11-0.66,0.32-0.95c0.37-0.48,0.97-0.76,1.66-0.76c0.25,0,0.47,0.04,0.68,0.11
					c0.3,0.11,0.43,0.25,0.44,0.26l-0.07,0.97l-0.36-0.03c-0.01-0.01-0.08-0.42-0.08-0.42c-0.02-0.12-0.38-0.3-0.91-0.3
					c-0.56,0-0.93,0.3-0.97,0.79c0,0.61,0.4,0.9,1.26,0.97c0.9,0.08,1.4,0.52,1.4,1.25c0,0.33-0.11,0.66-0.32,0.95
					c-0.37,0.48-0.97,0.75-1.66,0.75c-0.25,0-0.48-0.04-0.68-0.11l-0.25-0.03l-0.02,0.09c0,0-0.01,0-0.01,0
					c-0.08,0-0.53-0.04-0.77-0.04c-0.27,0-0.51,0.04-0.51,0.04l-0.9-1.92c0,0-0.02,0-0.06,0c-0.13,0-0.46-0.01-0.99-0.01
					c-0.7,0-0.93,0.01-0.93,0.01l-0.17,0.39c-0.17,0.37-0.34,0.74-0.4,0.87c-0.03,0.08-0.03,0.14,0,0.19
					c0.08,0.12,0.34,0.14,0.45,0.14l-0.07,0.33c0,0-0.01,0-0.03,0c-0.16,0-0.94-0.03-1.17-0.03c-0.36,0-0.71,0.03-0.71,0.03
					c-0.28-0.44-0.72-1.07-1.04-1.54l-0.22-0.33c-0.03-0.04-0.05-0.08-0.07-0.11l-0.14,0.11l-0.57,0.73
					c-0.46,0.58-1.02,1.3-1.06,1.36c-0.09,0.15-0.15,0.18-0.15,0.18l-1.02,0.01L135.13,75.92 M141.74,73.07
					c0.07,0,0.35,0.02,0.68,0.02c0.39,0,0.79-0.02,0.79-0.02l-0.28-0.67l-0.24-0.58c-0.09-0.22-0.16-0.39-0.2-0.51
					c-0.12,0.31-0.73,1.72-0.75,1.77C141.72,73.07,141.73,73.07,141.74,73.07"/>
				<path class="st4" d="M128.4,75.18c0.14,0,0.28-0.03,0.28-0.2l0.03-2.4l-0.02-1.74c-0.01,0-0.11-0.01-0.61-0.01
					c-0.33,0-0.68,0.01-0.68,0.01c-0.29,0-0.42,0.4-0.42,0.41l-0.21-0.14l0.28-0.75l1.99,0.03l2.23-0.02l-0.09,0.83l-0.23,0.02
					c-0.01-0.02,0-0.19-0.11-0.3c-0.06-0.06-0.14-0.09-0.25-0.09c-0.46,0-1.05,0.02-1.09,0.03v0.22c-0.01,0.31-0.02,0.89-0.02,1.49
					c0,0.75,0.01,1.56,0.02,2.03l0.01,0.39c0,0.08,0.05,0.13,0.16,0.16c0.09,0.03,0.2,0.03,0.27,0.03l0.08,0l-0.12,0.34
					c0,0-0.01,0-0.01,0c-0.08,0-0.4-0.03-0.83-0.03c-0.47,0-0.78,0.04-0.78,0.04l-0.03,0L128.4,75.18"/>
				<path class="st4" d="M134.76,75.53l-0.56-0.01c-0.51-0.02-1.11-0.03-1.5-0.03c-0.33,0-0.94,0.04-0.94,0.04l0.13-0.33
					c0.02-0.01,0.12-0.01,0.21-0.05c0.13-0.06,0.19-0.17,0.19-0.32c0-0.08,0-0.25,0.01-0.49c0.01-0.46,0.02-1.15,0.02-1.81
					c0-0.53-0.01-1.04-0.02-1.35l0-0.28c0-0.17-0.26-0.19-0.41-0.19c-0.06,0-0.11,0-0.11,0l0.13-0.33h0.02
					c0.1,0,0.49,0.02,0.77,0.02c0.59,0,1.75-0.04,1.75-0.04c0.45,0,0.57,0.11,0.58,0.12c0,0.02-0.02,0.29-0.02,0.51l0.01,0.16
					c-0.01,0.02-0.3,0.17-0.31,0.18c-0.02-0.26-0.12-0.5-0.82-0.5l-0.77,0.01c0.01,0.01-0.03,0.13-0.03,0.37l0,1.32l0.14-0.01
					l0.75,0l1.09,0l-0.23,0.55c0,0-0.03,0-0.06,0c-0.14,0-0.48-0.01-0.83-0.01c-0.27,0-0.52,0.01-0.69,0.02l-0.15,0
					c0.01,0.22,0.01,0.9,0.01,0.9v0.12c0,0.41,0.01,0.71,0.04,0.89l0.1-0.01c0.19,0.01,0.54,0.02,0.75,0.02
					c0.29,0,0.45-0.01,0.67-0.04l0.03-0.65l0.44,0.31l0,0.6c0,0.2,0.03,0.3,0.03,0.3l0,0.02h-0.02L134.76,75.53"/>
				<g>
					<path class="st4" d="M149.9,70.68c0-0.17-0.1-0.25-0.3-0.25h-0.34v0.89h0.1v-0.4h0.21l0.25,0.39l0,0.01h0.11l-0.26-0.4
						C149.82,70.88,149.9,70.8,149.9,70.68z M149.37,70.52h0.23c0.08,0,0.2,0.02,0.2,0.16c0,0.13-0.1,0.15-0.26,0.15h-0.17V70.52z"
						/>
					<path class="st4" d="M149.55,70.12c-0.41,0-0.74,0.33-0.74,0.75c0,0.41,0.33,0.75,0.74,0.75c0.41,0,0.74-0.33,0.74-0.75
						C150.29,70.46,149.96,70.12,149.55,70.12z M149.55,71.52c-0.36,0-0.65-0.29-0.65-0.65c0-0.37,0.28-0.65,0.65-0.65
						c0.37,0,0.64,0.28,0.64,0.65C150.19,71.23,149.91,71.52,149.55,71.52z"/>
				</g>
			</g>
		</g>
	</g>
</g>
</svg>
