<?xml version="1.0" encoding="utf-8"?>
<!-- Generator: Adobe Illustrator 23.0.6, SVG Export Plug-In . SVG Version: 6.00 Build 0)  -->
<svg version="1.1" xmlns="http://www.w3.org/2000/svg" xmlns:xlink="http://www.w3.org/1999/xlink" x="0px" y="0px"
	 viewBox="0 0 216 98.92" style="enable-background:new 0 0 216 98.92;" xml:space="preserve">
<g id="Layer_1">
</g>
<g id="Layer_2">
	<g>
		<line x1="52.65" y1="33.71" x2="52.65" y2="33.71"/>
		<line x1="52.36" y1="33.9" x2="52.36" y2="33.9"/>
		<g>
			<path d="M83.41,66.06c-0.41-0.15-1.14,0.16-1.14,0.16c-0.17-1.05-1.35-2.49-1.35-2.49S83.26,65.92,83.41,66.06
				c0.02-0.06,0.75-1.64-0.73-3.02c-2.21-2.06-6.44-5.92-6.43-5.9c0.3,0.95,1.99,4,1.1,9.67l2.18,0.41l0.26,0.44
				c0,0,2.49,0.33,2.88,0.7c0,0,0.86,0.6-0.06,1.42c0,0,1.41-0.27,2.2-1.05c0,0,0.72-0.62-0.13-1.49L83.41,66.06"/>
		</g>
		<path d="M83.41,66.06C83.41,66.06,83.41,66.06,83.41,66.06C83.41,66.06,83.41,66.06,83.41,66.06
			C83.4,66.06,83.4,66.06,83.41,66.06L83.41,66.06"/>
		<g>
			<path d="M71.66,52.74L40.45,23.61c-1.5-1.46-0.91-3.32-0.91-3.32l-2.56,5.63c-0.69,1.77,0.37,2.88,1.11,3.48
				c0.74,0.59,24.91,20.16,24.91,20.16l0.02,0.82L38.99,31.91c-1.19-0.9-1.05-2.36-1.05-2.36l-1.74,3.58
				c-0.84,2.02,1.24,3.31,2.11,3.9c0.87,0.59,24.83,17.28,24.83,17.28l0.21,1c0,0-23.22-15.45-24.08-15.98
				c-1.03-0.63-0.95-2.09-0.95-2.09l-1.7,3.64c-0.71,1.48,1.32,2.52,2.21,3.06c0.53,0.32,13.52,8.07,24.22,14.44l-13.89,0
				c-2.05,0-2.73-0.61-2.73-0.61l1.86,1.74c0.32,0.29,1.15,1.34,2.38,1.34c0.87,0,5.12,0.01,5.12,0.01l1.01,0.44l-4.47,0.35
				c-0.89,0.04-1.14,0.13-2.32-0.53c-0.01-0.01,1.98,1.94,1.98,1.94c0.55,0.47,1,0.94,1.95,0.86c0.95-0.08,6.56-1.01,6.56-1.01
				l0.89,0.4l-5.89,1.29c-1.34,0.3-2.31-0.4-2.31-0.4s1.11,1.09,1.85,1.81c0.76,0.74,1.45,1.2,3.87,0.51
				c0.96-0.27,5.75-1.79,5.75-1.79l3.08,1.34c3.1,4.29,6.96,6.56,6.96,6.56c-0.74,0.87-0.11,1.89-0.11,1.89
				c0.64-1.3,2.08-2.01,3.16-1.85c0.94,0.14,0.69,1.29,0.72,1.24c0.58-0.74,1.06-1.62,0.47-2.37c-0.71-0.91-2.53-0.12-2.53-0.12
				l-1.78-3.24l2.41-1.38C78.37,58.43,71.66,52.74,71.66,52.74"/>
		</g>
		<path d="M70.01,40.65c-0.4-0.47-14.9-16.75-14.9-16.75c-1.26-1.39-0.81-2.48-0.78-2.56l-1.69,3.79c-0.38,1.04,0.33,1.72,0.84,2.31
			c0.52,0.6,15.74,16.5,15.74,16.5l-0.1,0.87L54.71,30.42c-1.16-1.19-0.84-2.09-0.79-2.21l-1.55,3.49
			c-0.35,1.08,0.76,1.79,1.52,2.53c0.81,0.78,16.86,15.78,18.17,16.98c2.81,2.56,4.18,5.94,4.18,5.94
			C77.86,48.85,71.57,42.45,70.01,40.65"/>
		<polyline points="54.33,21.33 54.34,21.33 54.33,21.33 		"/>
		<path d="M53.93,28.21l0.01-0.02C53.93,28.19,53.93,28.2,53.93,28.21"/>
		<g>
			<polyline points="136.12,25.55 133.39,33.06 137.54,33.06 138.57,30.18 142.63,30.18 142.63,50.76 140.32,50.77 138.65,55.4 
				150.08,55.4 151.8,50.77 148.6,50.76 148.59,30.19 153.37,30.19 153.36,33.06 156.24,33.05 158.96,25.54 136.12,25.55 			"/>
			<path d="M90.05,25.55l-1.72,4.65l2.91-0.01v13.49c0,2.48-0.45,3.86-1.66,5.09c-0.95,0.97-2.57,1.57-4.23,1.57
				c-2.01,0-3.81-0.67-4.94-1.84c-1.13-1.12-1.68-2.97-1.68-5.66l-0.01-17.29l-8.43,0.02l-1.71,4.63l3.59-0.02v12.85
				c0,12.06,9.41,13,12.29,13c7.46,0,12.27-4.82,12.27-12.27l0.03-13.56h2.14l1.66-4.65H90.05"/>
			<path d="M130.76,30.18l0.01,25.23l-3.52,0c0,0-16.38-17.27-17.48-18.43c0,2.45-0.01,13.79-0.01,13.79h3.23l-1.68,4.66h-10.57
				l1.68-4.66h1.82l0-20.58h-3.85l1.67-4.65h6.49c0,0,12.53,13.07,16.87,17.66c0-1.42-0.01-13.01-0.01-13.01l-3.15,0l1.66-4.66
				h10.82l-1.67,4.66L130.76,30.18"/>
			<g>
				<path d="M160.77,26.92v-0.01c0.18-0.06,0.33-0.2,0.33-0.43c0-0.17-0.06-0.29-0.16-0.37c-0.11-0.08-0.27-0.14-0.53-0.14
					c-0.21,0-0.34,0.03-0.48,0.04v1.77h0.27v-0.76h0.19c0.22,0,0.33,0.08,0.37,0.31c0.04,0.23,0.07,0.39,0.12,0.45h0.28
					c-0.03-0.05-0.06-0.16-0.11-0.43C161.02,27.09,160.92,26.95,160.77,26.92z M160.39,26.81h-0.19v-0.6
					c0.05-0.01,0.11-0.01,0.19-0.01c0.31,0,0.42,0.15,0.42,0.31C160.81,26.72,160.62,26.81,160.39,26.81z"/>
				<path d="M160.49,25.28L160.49,25.28c-0.85,0-1.53,0.7-1.53,1.58c0,0.9,0.68,1.59,1.53,1.59c0.85,0,1.52-0.7,1.52-1.59
					C162,25.98,161.33,25.28,160.49,25.28z M160.49,28.21c-0.69,0-1.24-0.59-1.24-1.35c0-0.74,0.56-1.33,1.23-1.33h0.01
					c0.69,0,1.23,0.6,1.23,1.34C161.73,27.62,161.18,28.21,160.49,28.21z"/>
			</g>
		</g>
		<g>
			<g>
				<path d="M97.27,69.18c-0.95,0-1.82-0.35-2.12-0.85c-0.27-0.45-0.27-0.77-0.27-2.55l0.01-1.35c0-0.17-0.3-0.19-0.43-0.19l-0.09,0
					l0.13-0.34h0.02c0.13,0,0.75,0.03,0.98,0.03c0.26,0,0.91-0.04,0.91-0.04l-0.14,0.34c-0.18,0-0.47,0.04-0.47,0.3l0,2.34
					c0,0.67,0,1.79,1.41,1.79c1.04,0,1.53-0.51,1.53-1.63l0.01-2.6c0-0.19-0.38-0.19-0.38-0.19l0.12-0.34h0.02
					c0.08,0,0.42,0.03,0.69,0.03c0.3,0,0.71-0.04,0.71-0.04l-0.12,0.35l-0.09,0c-0.13,0-0.34,0.04-0.34,0.29l-0.04,2.34
					c0,0.34-0.05,1.18-0.47,1.67C98.47,68.98,97.78,69.18,97.27,69.18"/>
				<path d="M105.14,69.07c-0.71-0.79-1.15-1.25-1.48-1.6c-0.17-0.19-0.32-0.34-0.46-0.49l-0.53-0.58c-0.5-0.56-0.91-1-1.09-1.19
					c0.02,0.37,0,1.81,0,1.81l0.03,2.04l-0.5-0.02l-0.69,0.04l0.13-0.34c0.16,0,0.42-0.03,0.42-0.26l0.01-0.21
					c0-0.2,0.02-0.52,0.02-1.13l0.01-2.63c0-0.22-0.25-0.25-0.36-0.25l0.09-0.34h0.02c0.05,0,0.22,0.02,0.36,0.02
					c0.17,0,0.39-0.02,0.39-0.02c1.48,1.68,1.49,1.68,1.48,1.69c0.01,0,1.59,1.7,2,2.12c-0.02-0.66,0-3.01,0-3.01l-0.03-0.78
					c0,0,0.02-0.01,0.04-0.01c0.1,0,0.35,0.02,0.56,0.02c0.26,0,0.67-0.04,0.67-0.04l-0.12,0.34c-0.1,0.01-0.49,0.02-0.49,0.22
					c0,0-0.05,2.09-0.05,2.68c0,0.59,0.02,1.48,0.04,1.92L105.14,69.07L105.14,69.07"/>
				<path d="M107.23,68.73l0.08,0c0.12,0,0.33-0.03,0.33-0.2v-4.06c0-0.21-0.29-0.24-0.47-0.24c-0.06,0-0.11,0-0.11,0l0.12-0.34
					c0,0,0.01,0,0.02,0c0.09,0,0.47,0.03,0.85,0.03c0.43,0,0.86-0.04,0.86-0.04l-0.13,0.35c-0.16,0.01-0.33,0.04-0.33,0.24v4.05
					c0,0.08,0.05,0.13,0.15,0.16c0.09,0.03,0.2,0.04,0.28,0.04l0.09,0l-0.12,0.34c0,0-0.01,0-0.01,0c-0.08,0-0.4-0.03-0.83-0.03
					c-0.48,0-0.93,0.04-0.93,0.04h-0.02L107.23,68.73"/>
				<path d="M111.85,69.09c-0.01-0.01-0.53-1.24-1.14-2.58c-0.37-0.82-0.78-1.62-0.96-1.97l-0.05-0.1c-0.09-0.18-0.29-0.2-0.4-0.2
					c-0.05,0-0.08,0-0.08,0l0.12-0.34c0,0,0,0,0.01,0c0.05,0,0.26,0.03,0.5,0.03c0.27,0,0.53-0.03,0.53-0.03l1.46,3.11
					c0.24,0.55,0.32,0.78,0.41,1.12c0.04-0.2,0.73-1.79,0.74-1.81c0,0,0.7-1.51,0.84-1.81c0.14-0.3,0.22-0.6,0.22-0.6h0.01
					c0.07,0,0.33,0.03,0.51,0.03c0.21,0,0.49-0.04,0.49-0.04l-0.13,0.35c-0.14,0-0.35,0.05-0.55,0.49
					c-0.15,0.31-0.72,1.54-0.72,1.54l-1.24,2.81H111.85"/>
				<path d="M124.94,69.16c-0.79,0-1.41-0.05-2.16-0.87c-0.95-1.04-1.92-2.13-1.94-2.17c0.02,0.2,0.03,1.82,0.03,2.25
					c0,0.43,0.03,0.68,0.03,0.68c0,0-0.01,0.01-0.03,0.01c-0.07,0-0.25-0.03-0.51-0.03c-0.31,0-0.85,0.04-0.85,0.04l0.13-0.34
					c0.2-0.01,0.33-0.04,0.38-0.1c0.04-0.04,0.04-0.07,0.04-0.1l0-4.07c0-0.21-0.3-0.24-0.42-0.24l0.06-0.34c0,0,0.01,0,0.02,0
					c0.1,0,0.54,0.03,0.87,0.03c0.16,0,0.25-0.01,0.36-0.01c0.15-0.01,0.34-0.02,0.75-0.02c0.49,0,1.41,0.2,1.41,0.94
					c0,0.77-0.73,1.24-1.41,1.44c2.1,2.15,2.57,2.48,3.54,2.48c0.07,0,0.15-0.01,0.22-0.02c0.42-0.06,1.07-0.41,1.08-1.08
					c0.01-0.37,0.02-0.88-1.12-0.95c-0.9-0.06-1.37-0.46-1.4-1.2c-0.02-0.41,0.14-0.8,0.44-1.11c0.37-0.38,0.9-0.59,1.49-0.59
					c0.76,0,1.08,0.36,1.08,0.36l-0.07,0.93l-0.35-0.03c-0.01-0.01-0.08-0.39-0.08-0.4c-0.02-0.12-0.37-0.3-0.88-0.3
					c-0.57,0-0.92,0.33-0.92,0.84c0,0.52,0.37,0.79,1.2,0.87c0.88,0.08,1.35,0.51,1.35,1.21C127.27,68.31,126.15,69.16,124.94,69.16
					 M120.85,64.36c0.01,0.01,0,1.58,0.01,1.7c0.88-0.05,1.36-0.43,1.36-1.07c0-0.59-0.58-0.65-1.01-0.65
					C120.91,64.34,120.86,64.36,120.85,64.36"/>
				<path d="M128.27,68.77l0.08,0c0.12,0,0.33-0.02,0.33-0.2v-4.06c0-0.21-0.25-0.24-0.4-0.24c-0.05,0-0.09,0-0.09,0l0.12-0.34
					c0,0,0.01,0,0.01,0c0.07,0,0.39,0.03,0.77,0.03c0.43,0,0.95-0.04,0.95-0.04l-0.13,0.34c-0.17,0.01-0.41,0.03-0.41,0.25v4.05
					c0,0.07,0.05,0.13,0.15,0.16c0.09,0.03,0.2,0.04,0.28,0.04l0.08,0l-0.12,0.34c0,0-0.01,0-0.01,0c-0.07,0-0.4-0.03-0.83-0.03
					c-0.48,0-0.92,0.04-0.92,0.04l-0.02,0L128.27,68.77"/>
				<path d="M136.77,69.04l-0.87,0.04l0.12-0.33c0.02-0.01,0.43-0.03,0.43-0.21l0.01-1.44c0-0.26-0.21-0.54-0.52-0.97
					c-0.11-0.15-0.23-0.32-0.36-0.51c-0.82-1.21-0.94-1.24-1.36-1.24c-0.47,0-1.03,0.01-1.07,0.03l0,4.14
					c0,0.08,0.05,0.13,0.15,0.16c0.09,0.03,0.2,0.03,0.27,0.03l0.09,0l-0.12,0.34h-0.02c-0.07,0-0.4-0.03-0.83-0.03
					c-0.48,0-0.92,0.04-0.92,0.04l0.13-0.35l0.08,0c0.13,0,0.33-0.03,0.33-0.2l0.01-4.15h0c-0.02,0-0.12-0.01-0.61-0.01
					c-0.34,0-0.68,0-0.68,0c-0.29,0-0.42,0.41-0.42,0.41l-0.22-0.14l0.28-0.75l2,0.03l2.04-0.03c0.75,0,0.93,0.3,1.35,1.05
					c0.08,0.14,0.17,0.29,0.27,0.46c0.17,0.28,0.31,0.5,0.43,0.69l0.23,0.37c0.09-0.22,0.7-1.15,1.11-1.76
					c0.21-0.31,0.37-0.56,0.39-0.6c0.08-0.14,0.09-0.2,0.09-0.2c0,0,0.01,0,0.02,0c0.04,0,0.17,0.03,0.32,0.03
					c0.18,0,0.65-0.04,0.65-0.04l0.02,0l-0.03,0.08c-0.07,0.04-0.38,0.17-0.58,0.46c-0.05,0.07-0.13,0.18-0.23,0.31
					c-0.48,0.65-1.49,2.01-1.49,2.48l0.01,1.32c0,0.08,0.05,0.13,0.14,0.16c0.08,0.03,0.19,0.04,0.26,0.04c0.06,0,0.11,0,0.11,0
					l-0.13,0.34L136.77,69.04"/>
				<path d="M117.87,69.07c-0.59-0.01-1.35-0.04-1.78-0.04c-0.19,0-0.36,0.02-0.51,0.02c-0.11,0.01-0.21,0.01-0.29,0.01l-0.14,0
					l0.13-0.33c0.03-0.01,0.4-0.01,0.4-0.37c0-0.08,0-0.26,0.01-0.49c0.01-0.46,0.02-1.16,0.02-1.82c0-0.54-0.01-1.05-0.02-1.36
					l-0.01-0.29c0-0.17-0.2-0.19-0.32-0.19c-0.05,0-0.09,0-0.09,0l0.13-0.33c0,0,0.01,0,0.01,0c0.08,0,0.39,0.02,0.67,0.02
					c0.58,0,1.75-0.04,1.75-0.04c0.45,0,0.58,0.11,0.58,0.12c0,0.01-0.02,0.29-0.02,0.51l0.01,0.16c0,0.01-0.3,0.17-0.31,0.18
					c-0.02-0.26-0.12-0.5-0.82-0.5l-0.77,0.01c0.01,0.01-0.03,0.13-0.03,0.37l0,1.33l0.14-0.01l0.75,0l0.95,0l-0.24,0.55
					c0,0-0.02,0-0.04,0c-0.09,0-0.35-0.01-0.7-0.01c-0.27,0-0.53,0.01-0.7,0.01l-0.16,0l0.01,1.02c0,0.41,0.02,0.71,0.04,0.89
					l0.15,0c0.19,0.01,0.52,0.02,0.71,0.02c0.29,0,0.63-0.01,0.84-0.03c-0.01-0.01,0.04-0.65,0.04-0.65l0.44,0.31l0.01,0.6
					c0,0.2,0.02,0.3,0.02,0.3l-0.12,0.02L117.87,69.07"/>
			</g>
			<g>
				<path d="M86.15,76.99c-1.49,0-2.46-0.99-2.46-2.52c0-1.14,0.5-1.99,1.44-2.45c0.46-0.22,0.98-0.34,1.49-0.34
					c1.51,0,2.44,0.89,2.44,2.33C89.07,75.73,87.84,76.99,86.15,76.99 M86.34,72.2c-0.77,0-1.45,0.39-1.72,1
					c-0.13,0.3-0.2,0.66-0.2,1.06c0,0.91,0.29,1.49,0.95,1.89c0.32,0.2,0.7,0.3,1.08,0.3c1.13,0,1.89-0.9,1.89-2.22
					c0-0.86-0.33-1.46-0.97-1.79C87.07,72.28,86.71,72.2,86.34,72.2"/>
				<path d="M90.02,76.53c0.22,0,0.45-0.05,0.45-0.36V72.2c0-0.17-0.26-0.19-0.41-0.19c-0.07,0-0.11,0.01-0.11,0.01l0.13-0.34
					c0,0,0.01,0,0.01,0c0.05,0,0.28,0.03,0.79,0.03c0.59,0,1.76-0.04,1.76-0.04c0.44,0,0.57,0.12,0.58,0.12
					c0.01,0.01-0.02,0.29-0.02,0.52l0.01,0.16c-0.01,0.01-0.3,0.17-0.32,0.18c-0.02-0.25-0.12-0.5-0.82-0.5l-0.77,0.01
					c0,0.01-0.03,0.13-0.03,0.37c0,0,0,1.16-0.01,1.33l1.82-0.01l-0.22,0.51l-1.59,0.01l0.01,1.96c0,0.07,0.05,0.13,0.14,0.16
					c0.08,0.03,0.19,0.04,0.26,0.04c0.07,0,0.12,0,0.12,0l-0.13,0.33c0,0-0.01,0-0.01,0c-0.06,0-0.34-0.03-0.77-0.03
					c-0.49,0-0.99,0.04-0.99,0.04l-0.02,0L90.02,76.53"/>
				<path d="M100.99,76.84c-0.71-0.79-1.14-1.25-1.47-1.59c-0.18-0.19-0.32-0.34-0.47-0.5l-0.42-0.46c-0.55-0.61-1-1.11-1.2-1.31
					c0.03,0.37,0.01,1.81,0.01,1.81l0.01,2.03c0,0-0.02,0-0.05,0c-0.07,0-0.22-0.01-0.44-0.01c-0.31,0-0.69,0.04-0.69,0.04
					l0.13-0.34c0.16,0,0.42-0.03,0.42-0.26l0-0.21c0.01-0.2,0.02-0.52,0.02-1.13c0,0,0.01-2.25,0.01-2.62
					c0-0.17-0.19-0.25-0.57-0.25l-0.1-0.01c-0.01-0.01-0.01-0.01,0.13-0.34c0,0,0.01,0,0.03,0c0.11,0,0.47,0.02,0.61,0.02
					c0.17,0,0.39-0.02,0.39-0.02c1.48,1.67,1.49,1.68,1.48,1.69c0.01,0,1.58,1.7,2,2.12l0-3.01l-0.02-0.78c0,0,0.01,0,0.04,0
					c0.1,0,0.35,0.02,0.56,0.02c0.25,0,0.58-0.04,0.58-0.04l-0.12,0.34c-0.09,0.01-0.4,0.02-0.4,0.22c0,0-0.05,2.09-0.05,2.67
					c0,0.59,0.03,1.48,0.04,1.92L100.99,76.84L100.99,76.84"/>
				<path d="M113.57,77.3c-0.22-0.12-0.49-0.44-0.8-0.8c-0.13-0.16-0.27-0.32-0.42-0.48c-0.96-1.05-1.92-2.14-1.94-2.16
					c0.03,0.2,0.03,1.81,0.03,2.24c0,0.43,0.02,0.68,0.02,0.68c0,0-0.01,0-0.03,0c-0.07,0-0.26-0.02-0.51-0.02
					c-0.32,0-0.85,0.04-0.85,0.04l0.13-0.34c0.2-0.01,0.32-0.04,0.38-0.1c0.04-0.04,0.04-0.07,0.04-0.09l0.07-2.41
					c0-0.63-0.04-1.11-0.05-1.4c-0.01-0.12-0.01-0.21-0.01-0.25c0-0.21-0.29-0.23-0.42-0.23l0.06-0.34c0,0,0.01,0,0.02,0
					c0.1,0,0.54,0.03,0.87,0.03c0.15,0,0.25-0.01,0.36-0.02c0.15-0.01,0.33-0.02,0.74-0.02c0.49,0,1.41,0.19,1.41,0.94
					c0,0.79-0.6,1.13-1.18,1.35c-0.06,0.02-0.2,0.06-0.22,0.06c0.13,0.07,0.65,0.6,1.25,1.22c0.49,0.5,1.04,1.07,1.47,1.49
					c0.26,0.26,0.38,0.37,0.72,0.59l0.04,0.03L113.57,77.3 M110.78,72.06c-0.29,0-0.35,0.02-0.35,0.02l0.01,1.7
					c0.14-0.01,0.48-0.01,0.79-0.15c0.37-0.16,0.56-0.48,0.56-0.92C111.79,72.26,111.48,72.06,110.78,72.06"/>
				<path d="M105.24,76.93c-1.51,0-2.48-1-2.48-2.54c0-1.16,0.5-2.01,1.45-2.47c0.47-0.23,0.99-0.35,1.51-0.35
					c1.52,0,2.47,0.9,2.47,2.35C108.18,75.67,106.95,76.93,105.24,76.93 M105.42,72.14c-0.76,0-1.42,0.39-1.69,0.98
					c-0.13,0.3-0.2,0.67-0.2,1.06c0,0.9,0.29,1.48,0.94,1.88c0.32,0.2,0.69,0.3,1.07,0.3c1.12,0,1.87-0.89,1.87-2.2
					c0-0.84-0.32-1.44-0.96-1.76C106.15,72.23,105.79,72.14,105.42,72.14"/>
				<path d="M115.05,76.48c0.14,0,0.28-0.03,0.28-0.2l0.03-2.4l-0.03-1.74c-0.01,0-0.11-0.01-0.6-0.01c-0.34,0-0.68,0.01-0.68,0.01
					c-0.29,0-0.42,0.41-0.42,0.41l-0.22-0.14l0.28-0.75l1.99,0.03l2.23-0.02l-0.09,0.83l-0.23,0.02c-0.01-0.02-0.01-0.19-0.11-0.3
					c-0.06-0.06-0.14-0.09-0.24-0.09c-0.47,0-1.06,0.02-1.09,0.03v0.22c-0.01,0.32-0.03,0.89-0.03,1.5c0,0.75,0.01,1.55,0.03,2.02
					l0,0.39c0,0.08,0.05,0.13,0.16,0.16c0.09,0.03,0.2,0.04,0.27,0.04l0.09,0l-0.12,0.34c0,0-0.01,0-0.02,0
					c-0.07,0-0.4-0.03-0.83-0.03c-0.47,0-0.78,0.04-0.78,0.04l-0.03,0L115.05,76.48"/>
				<path d="M122.38,76.49l0.08,0.01c0.12,0,0.33-0.03,0.33-0.2v-1.91c0,0.01-0.05,0.01-0.13,0.01c-0.22,0-0.7-0.01-1.4-0.01
					c-1,0-1.44,0.02-1.44,0.02l0.01,1.89c0,0.07,0.05,0.13,0.15,0.16c0.09,0.02,0.2,0.03,0.28,0.03l0.08,0l-0.12,0.34
					c0,0-0.01,0-0.02,0c-0.07,0-0.4-0.03-0.83-0.03c-0.47,0-0.92,0.04-0.92,0.04l0.13-0.35l0.08,0c0.12,0,0.33-0.03,0.33-0.2
					l0.06-2.44L119,72.24c0-0.2-0.25-0.23-0.4-0.23c-0.05,0-0.09,0-0.09,0l0.12-0.34c0,0,0.01,0,0.02,0c0.07,0,0.39,0.03,0.77,0.03
					c0.43,0,0.95-0.04,0.95-0.04L120.24,72c-0.2,0.01-0.41,0.03-0.41,0.24v1.62c0,0,0.06-0.01,0.15-0.01c0.27,0,0.86,0.01,1.3,0.01
					c0.6,0,1.53-0.02,1.53-0.02l-0.01-1.6c0-0.21-0.25-0.24-0.39-0.24c-0.05,0-0.09,0.01-0.09,0.01l0.12-0.34c0,0,0.01,0,0.02,0
					c0.07,0,0.39,0.03,0.77,0.03c0.43,0,0.95-0.04,0.95-0.04l-0.13,0.34c-0.2,0.01-0.41,0.04-0.41,0.24c0,0.03,0,0.11-0.01,0.22
					c-0.02,0.29-0.06,0.8-0.06,1.37c0,0.74,0.04,1.57,0.06,2.05c0.01,0.21,0.01,0.35,0.01,0.41c0,0.18,0.3,0.19,0.43,0.19l0.09,0
					l-0.12,0.34c0,0-0.01,0-0.02,0c-0.07,0-0.4-0.03-0.83-0.03c-0.48,0-0.92,0.04-0.92,0.04h-0.02L122.38,76.49"/>
				<path d="M135.13,77.25c0,0,0.3-0.23,0.55-0.49c0.27-0.28,1.36-1.6,1.82-2.19c0,0,0.17-0.21,0.18-0.23
					c-0.08-0.1-0.14-0.18-0.16-0.21c-0.09-0.14-0.18-0.27-0.28-0.44c-0.12-0.19-0.26-0.41-0.43-0.66c-0.62-0.92-0.73-1.01-1.19-1.01
					l0.11-0.34l0.53,0.03c0.15,0,0.58-0.03,0.58-0.03c0.01,0.01,0.79,1.21,1.18,1.79l0.17,0.25c-0.01-0.03,0.05-0.11,0.1-0.18
					c0.19-0.26,0.45-0.59,0.68-0.89c0.27-0.35,0.53-0.69,0.57-0.74c0.08-0.14,0.09-0.21,0.09-0.21c0,0,0.02,0,0.04,0
					c0.07,0,0.27,0.02,0.41,0.02c0.19,0,0.5-0.01,0.5-0.01c0,0.03-0.31,0.18-0.54,0.48l-0.36,0.47c-0.32,0.44-0.76,1.02-1.06,1.41
					l-0.1,0.12c-0.04,0.04-0.01,0.08,0.02,0.12c0.04,0.05,0.08,0.1,0.09,0.12c0.22,0.33,0.95,1.37,1.31,1.88
					c0.08,0.12,0.12,0.16,0.14,0.16c0.03,0,0.04-0.02,0.07-0.07l0.9-1.95l1.23-2.8l0.56-0.01c0.02,0.02,0.26,0.71,0.86,2.04
					c0.69,1.52,0.96,2.02,1.32,2.66c0.05,0.08,0.21,0.25,0.46,0.25l0.06-0.99l0.36,0.04c0.01,0.01,0.08,0.42,0.08,0.42
					c0.02,0.12,0.38,0.3,0.91,0.3c0.32,0,0.6-0.1,0.76-0.3c0.14-0.15,0.21-0.34,0.21-0.57c0-0.54-0.4-0.82-1.27-0.9
					c-0.9-0.08-1.39-0.52-1.39-1.25c0-0.33,0.11-0.66,0.32-0.95c0.37-0.48,0.97-0.76,1.66-0.76c0.25,0,0.47,0.04,0.68,0.11
					c0.3,0.11,0.43,0.25,0.44,0.26l-0.07,0.97l-0.36-0.03c-0.01-0.01-0.08-0.42-0.08-0.42c-0.02-0.12-0.38-0.3-0.91-0.3
					c-0.56,0-0.93,0.3-0.97,0.79c0,0.61,0.4,0.9,1.26,0.97c0.9,0.08,1.4,0.52,1.4,1.25c0,0.33-0.11,0.66-0.32,0.95
					c-0.37,0.48-0.97,0.75-1.66,0.75c-0.25,0-0.48-0.04-0.68-0.11l-0.25-0.03l-0.02,0.09c0,0-0.01,0-0.01,0
					c-0.08,0-0.53-0.04-0.77-0.04c-0.27,0-0.51,0.04-0.51,0.04l-0.9-1.92c0,0-0.02,0-0.06,0c-0.13,0-0.46-0.01-0.99-0.01
					c-0.7,0-0.93,0.01-0.93,0.01l-0.17,0.39c-0.17,0.37-0.34,0.74-0.4,0.87c-0.03,0.08-0.03,0.14,0,0.19
					c0.08,0.12,0.34,0.14,0.45,0.14l-0.07,0.33c0,0-0.01,0-0.03,0c-0.16,0-0.94-0.03-1.17-0.03c-0.36,0-0.71,0.03-0.71,0.03
					c-0.28-0.44-0.72-1.07-1.04-1.54l-0.22-0.33c-0.03-0.04-0.05-0.08-0.07-0.11l-0.14,0.11l-0.57,0.73
					c-0.46,0.58-1.02,1.3-1.06,1.36c-0.09,0.15-0.15,0.18-0.15,0.18l-1.02,0.01L135.13,77.25 M141.74,74.39
					c0.07,0,0.35,0.02,0.68,0.02c0.39,0,0.79-0.02,0.79-0.02l-0.28-0.67l-0.24-0.58c-0.09-0.22-0.16-0.39-0.2-0.51
					c-0.12,0.31-0.73,1.72-0.75,1.77C141.72,74.39,141.73,74.39,141.74,74.39"/>
				<path d="M128.4,76.5c0.14,0,0.28-0.03,0.28-0.2l0.03-2.4l-0.02-1.74c-0.01,0-0.11-0.01-0.61-0.01c-0.33,0-0.68,0.01-0.68,0.01
					c-0.29,0-0.42,0.4-0.42,0.41l-0.21-0.14l0.28-0.75l1.99,0.03l2.23-0.02l-0.09,0.83l-0.23,0.02c-0.01-0.02,0-0.19-0.11-0.3
					c-0.06-0.06-0.14-0.09-0.25-0.09c-0.46,0-1.05,0.02-1.09,0.03v0.22c-0.01,0.31-0.02,0.89-0.02,1.49c0,0.75,0.01,1.56,0.02,2.03
					l0.01,0.39c0,0.08,0.05,0.13,0.16,0.16c0.09,0.03,0.2,0.03,0.27,0.03l0.08,0l-0.12,0.34c0,0-0.01,0-0.01,0
					c-0.08,0-0.4-0.03-0.83-0.03c-0.47,0-0.78,0.04-0.78,0.04l-0.03,0L128.4,76.5"/>
				<path d="M134.76,76.85l-0.56-0.01c-0.51-0.02-1.11-0.03-1.5-0.03c-0.33,0-0.94,0.04-0.94,0.04l0.13-0.33
					c0.02-0.01,0.12-0.01,0.21-0.05c0.13-0.06,0.19-0.17,0.19-0.32c0-0.08,0-0.25,0.01-0.49c0.01-0.46,0.02-1.15,0.02-1.81
					c0-0.53-0.01-1.04-0.02-1.35l0-0.28c0-0.17-0.26-0.19-0.41-0.19c-0.06,0-0.11,0-0.11,0l0.13-0.33h0.02
					c0.1,0,0.49,0.02,0.77,0.02c0.59,0,1.75-0.04,1.75-0.04c0.45,0,0.57,0.11,0.58,0.12c0,0.02-0.02,0.29-0.02,0.51l0.01,0.16
					c-0.01,0.02-0.3,0.17-0.31,0.18c-0.02-0.26-0.12-0.5-0.82-0.5l-0.77,0.01c0.01,0.01-0.03,0.13-0.03,0.37l0,1.32l0.14-0.01
					l0.75,0l1.09,0l-0.23,0.55c0,0-0.03,0-0.06,0c-0.14,0-0.48-0.01-0.83-0.01c-0.27,0-0.52,0.01-0.69,0.02l-0.15,0
					c0.01,0.22,0.01,0.9,0.01,0.9v0.12c0,0.41,0.01,0.71,0.04,0.89l0.1-0.01c0.19,0.01,0.54,0.02,0.75,0.02
					c0.29,0,0.45-0.01,0.67-0.04l0.03-0.65l0.44,0.31l0,0.6c0,0.2,0.03,0.3,0.03,0.3l0,0.02h-0.02L134.76,76.85"/>
				<g>
					<path d="M149.9,72c0-0.17-0.1-0.25-0.3-0.25h-0.34v0.89h0.1v-0.4h0.21l0.25,0.39l0,0.01h0.11l-0.26-0.4
						C149.82,72.21,149.9,72.12,149.9,72z M149.37,71.84h0.23c0.08,0,0.2,0.02,0.2,0.16c0,0.13-0.1,0.15-0.26,0.15h-0.17V71.84z"/>
					<path d="M149.55,71.45c-0.41,0-0.74,0.33-0.74,0.75c0,0.41,0.33,0.75,0.74,0.75s0.74-0.33,0.74-0.75
						C150.29,71.78,149.96,71.45,149.55,71.45z M149.55,72.84c-0.36,0-0.65-0.29-0.65-0.65c0-0.37,0.28-0.65,0.65-0.65
						c0.37,0,0.64,0.28,0.64,0.65C150.19,72.56,149.91,72.84,149.55,72.84z"/>
				</g>
			</g>
		</g>
	</g>
</g>
</svg>
